<mxfile host="app.diagrams.net" modified="2023-04-11T22:01:52.688Z" agent="Mozilla/5.0 (Windows NT 10.0; Win64; x64) AppleWebKit/537.36 (KHTML, like Gecko) Chrome/111.0.0.0 Safari/537.36" etag="xe9dccksaB7RTfejXhlx" version="21.1.2" type="device" pages="4">
  <diagram name="FYYSINEN TOPOLOGIA" id="Dbv1lWlgpTVs0ntQYnec">
    <mxGraphModel dx="1438" dy="827" grid="1" gridSize="10" guides="1" tooltips="1" connect="1" arrows="1" fold="1" page="1" pageScale="1" pageWidth="827" pageHeight="1169" math="0" shadow="0">
      <root>
        <mxCell id="0" />
        <mxCell id="1" parent="0" />
        <mxCell id="u-2fl0tlQYIkl3K2YeA4-1" value="&lt;font style=&quot;font-size: 17px;&quot;&gt;&lt;b&gt;Fyysinen Topologia E04 - Anni OrilÃ¤hde AC8081&lt;/b&gt;&lt;/font&gt;" style="text;html=1;align=center;verticalAlign=middle;resizable=0;points=[];autosize=1;strokeColor=none;fillColor=none;" parent="1" vertex="1">
          <mxGeometry x="209" y="40" width="410" height="30" as="geometry" />
        </mxCell>
        <mxCell id="u-2fl0tlQYIkl3K2YeA4-4" value="Lubuntu-tietoverkot" style="fontColor=#0066CC;verticalAlign=top;verticalLabelPosition=bottom;labelPosition=center;align=center;html=1;outlineConnect=0;fillColor=#CCCCCC;strokeColor=#6881B3;gradientColor=none;gradientDirection=north;strokeWidth=2;shape=mxgraph.networks.pc;fontSize=17;" parent="1" vertex="1">
          <mxGeometry x="120" y="620" width="140" height="90" as="geometry" />
        </mxCell>
        <mxCell id="u-2fl0tlQYIkl3K2YeA4-5" value="Lubuntu-tietoverkot2" style="fontColor=#0066CC;verticalAlign=top;verticalLabelPosition=bottom;labelPosition=center;align=center;html=1;outlineConnect=0;fillColor=#CCCCCC;strokeColor=#6881B3;gradientColor=none;gradientDirection=north;strokeWidth=2;shape=mxgraph.networks.pc;fontSize=17;" parent="1" vertex="1">
          <mxGeometry x="530" y="620" width="140" height="90" as="geometry" />
        </mxCell>
        <mxCell id="u-2fl0tlQYIkl3K2YeA4-7" value="&lt;font style=&quot;font-size: 13px;&quot;&gt;Switch&lt;/font&gt;" style="html=1;whiteSpace=wrap;shape=isoCube2;backgroundOutline=1;isoAngle=15;fontSize=17;" parent="1" vertex="1">
          <mxGeometry x="120" y="410" width="150" height="90" as="geometry" />
        </mxCell>
        <mxCell id="u-2fl0tlQYIkl3K2YeA4-8" value="&lt;font style=&quot;font-size: 13px;&quot;&gt;Switch2&lt;/font&gt;" style="html=1;whiteSpace=wrap;shape=isoCube2;backgroundOutline=1;isoAngle=15;fontSize=17;" parent="1" vertex="1">
          <mxGeometry x="520" y="410" width="150" height="90" as="geometry" />
        </mxCell>
        <mxCell id="u-2fl0tlQYIkl3K2YeA4-9" value="" style="shape=cylinder3;whiteSpace=wrap;html=1;boundedLbl=1;backgroundOutline=1;size=15;fontSize=13;" parent="1" vertex="1">
          <mxGeometry x="50" y="180" width="110" height="70" as="geometry" />
        </mxCell>
        <mxCell id="u-2fl0tlQYIkl3K2YeA4-14" value="LAN_Vyos" style="shape=cylinder3;whiteSpace=wrap;html=1;boundedLbl=1;backgroundOutline=1;size=15;fontSize=13;" parent="1" vertex="1">
          <mxGeometry x="545" y="190" width="110" height="70" as="geometry" />
        </mxCell>
        <mxCell id="u-2fl0tlQYIkl3K2YeA4-15" value="" style="endArrow=classic;html=1;rounded=0;fontSize=13;" parent="1" edge="1">
          <mxGeometry width="50" height="50" relative="1" as="geometry">
            <mxPoint x="610" y="204" as="sourcePoint" />
            <mxPoint x="650" y="204" as="targetPoint" />
          </mxGeometry>
        </mxCell>
        <mxCell id="u-2fl0tlQYIkl3K2YeA4-16" value="" style="endArrow=classic;html=1;rounded=0;fontSize=13;" parent="1" edge="1">
          <mxGeometry width="50" height="50" relative="1" as="geometry">
            <mxPoint x="589" y="204" as="sourcePoint" />
            <mxPoint x="549" y="204" as="targetPoint" />
          </mxGeometry>
        </mxCell>
        <mxCell id="u-2fl0tlQYIkl3K2YeA4-17" value="" style="endArrow=classic;html=1;rounded=0;fontSize=13;" parent="1" edge="1">
          <mxGeometry width="50" height="50" relative="1" as="geometry">
            <mxPoint x="600" y="190" as="sourcePoint" />
            <mxPoint x="599.83" y="200" as="targetPoint" />
          </mxGeometry>
        </mxCell>
        <mxCell id="u-2fl0tlQYIkl3K2YeA4-20" value="" style="endArrow=classic;html=1;rounded=0;fontSize=13;" parent="1" edge="1">
          <mxGeometry width="50" height="50" relative="1" as="geometry">
            <mxPoint x="600.07" y="215" as="sourcePoint" />
            <mxPoint x="599.9000000000001" y="205" as="targetPoint" />
            <Array as="points">
              <mxPoint x="600" y="220" />
            </Array>
          </mxGeometry>
        </mxCell>
        <mxCell id="u-2fl0tlQYIkl3K2YeA4-21" value="" style="endArrow=none;html=1;rounded=0;fontSize=13;entryX=0.303;entryY=1.005;entryDx=0;entryDy=0;entryPerimeter=0;endSize=11;startSize=8;jumpSize=10;strokeWidth=4;fillColor=#dae8fc;strokeColor=#6c8ebf;dashed=1;dashPattern=1 1;" parent="1" source="u-2fl0tlQYIkl3K2YeA4-8" target="u-2fl0tlQYIkl3K2YeA4-14" edge="1">
          <mxGeometry width="50" height="50" relative="1" as="geometry">
            <mxPoint x="540" y="400" as="sourcePoint" />
            <mxPoint x="590" y="350" as="targetPoint" />
          </mxGeometry>
        </mxCell>
        <mxCell id="u-2fl0tlQYIkl3K2YeA4-22" value="untagged" style="endArrow=none;html=1;rounded=0;strokeWidth=4;fontSize=13;startSize=8;endSize=11;jumpSize=10;fillColor=#ffe6cc;strokeColor=#d79b00;" parent="1" source="u-2fl0tlQYIkl3K2YeA4-5" edge="1">
          <mxGeometry width="50" height="50" relative="1" as="geometry">
            <mxPoint x="594.66" y="570" as="sourcePoint" />
            <mxPoint x="594.66" y="500" as="targetPoint" />
          </mxGeometry>
        </mxCell>
        <mxCell id="u-2fl0tlQYIkl3K2YeA4-23" value="untagged" style="endArrow=none;html=1;rounded=0;strokeWidth=4;fontSize=13;startSize=8;endSize=11;jumpSize=10;exitX=0.5;exitY=0.07;exitDx=0;exitDy=0;exitPerimeter=0;fillColor=#ffe6cc;strokeColor=#d79b00;" parent="1" source="u-2fl0tlQYIkl3K2YeA4-4" edge="1">
          <mxGeometry width="50" height="50" relative="1" as="geometry">
            <mxPoint x="196.9436363636363" y="620" as="sourcePoint" />
            <mxPoint x="193.0599999999996" y="500" as="targetPoint" />
          </mxGeometry>
        </mxCell>
        <mxCell id="u-2fl0tlQYIkl3K2YeA4-24" value="" style="endArrow=none;html=1;rounded=0;strokeWidth=4;fontSize=13;startSize=8;endSize=11;jumpSize=10;dashed=1;exitX=0.081;exitY=0.353;exitDx=0;exitDy=0;exitPerimeter=0;fillColor=#fff2cc;strokeColor=#d6b656;" parent="1" source="u-2fl0tlQYIkl3K2YeA4-8" edge="1">
          <mxGeometry width="50" height="50" relative="1" as="geometry">
            <mxPoint x="345.34" y="440" as="sourcePoint" />
            <mxPoint x="249.9999999999996" y="440" as="targetPoint" />
          </mxGeometry>
        </mxCell>
        <mxCell id="u-2fl0tlQYIkl3K2YeA4-25" value="" style="endArrow=openThin;html=1;rounded=0;strokeWidth=1;fontSize=13;startSize=8;endSize=11;jumpSize=10;endFill=0;" parent="1" edge="1">
          <mxGeometry width="50" height="50" relative="1" as="geometry">
            <mxPoint x="600" y="435" as="sourcePoint" />
            <mxPoint x="640" y="435" as="targetPoint" />
          </mxGeometry>
        </mxCell>
        <mxCell id="u-2fl0tlQYIkl3K2YeA4-26" value="" style="endArrow=openThin;html=1;rounded=0;strokeWidth=1;fontSize=13;startSize=8;endSize=11;jumpSize=10;endFill=0;" parent="1" edge="1">
          <mxGeometry width="50" height="50" relative="1" as="geometry">
            <mxPoint x="610" y="445" as="sourcePoint" />
            <mxPoint x="650" y="445" as="targetPoint" />
          </mxGeometry>
        </mxCell>
        <mxCell id="u-2fl0tlQYIkl3K2YeA4-27" value="" style="endArrow=openThin;html=1;rounded=0;strokeWidth=1;fontSize=13;startSize=8;endSize=11;jumpSize=10;endFill=0;" parent="1" edge="1">
          <mxGeometry width="50" height="50" relative="1" as="geometry">
            <mxPoint x="200" y="440" as="sourcePoint" />
            <mxPoint x="240" y="440" as="targetPoint" />
          </mxGeometry>
        </mxCell>
        <mxCell id="u-2fl0tlQYIkl3K2YeA4-28" value="" style="endArrow=openThin;html=1;rounded=0;strokeWidth=1;fontSize=13;startSize=8;endSize=11;jumpSize=10;endFill=0;" parent="1" edge="1">
          <mxGeometry width="50" height="50" relative="1" as="geometry">
            <mxPoint x="210" y="450" as="sourcePoint" />
            <mxPoint x="250" y="450" as="targetPoint" />
          </mxGeometry>
        </mxCell>
        <mxCell id="u-2fl0tlQYIkl3K2YeA4-29" value="" style="endArrow=openThin;html=1;rounded=0;strokeWidth=1;fontSize=13;startSize=8;endSize=11;jumpSize=10;endFill=0;" parent="1" edge="1">
          <mxGeometry width="50" height="50" relative="1" as="geometry">
            <mxPoint x="180" y="440" as="sourcePoint" />
            <mxPoint x="140" y="440" as="targetPoint" />
          </mxGeometry>
        </mxCell>
        <mxCell id="u-2fl0tlQYIkl3K2YeA4-30" value="" style="endArrow=openThin;html=1;rounded=0;strokeWidth=1;fontSize=13;startSize=8;endSize=11;jumpSize=10;endFill=0;" parent="1" edge="1">
          <mxGeometry width="50" height="50" relative="1" as="geometry">
            <mxPoint x="190" y="450" as="sourcePoint" />
            <mxPoint x="160" y="450" as="targetPoint" />
          </mxGeometry>
        </mxCell>
        <mxCell id="u-2fl0tlQYIkl3K2YeA4-31" value="" style="endArrow=openThin;html=1;rounded=0;strokeWidth=1;fontSize=13;startSize=8;endSize=11;jumpSize=10;endFill=0;" parent="1" edge="1">
          <mxGeometry width="50" height="50" relative="1" as="geometry">
            <mxPoint x="577" y="440" as="sourcePoint" />
            <mxPoint x="537" y="440" as="targetPoint" />
          </mxGeometry>
        </mxCell>
        <mxCell id="u-2fl0tlQYIkl3K2YeA4-32" value="" style="endArrow=openThin;html=1;rounded=0;strokeWidth=1;fontSize=13;startSize=8;endSize=11;jumpSize=10;endFill=0;" parent="1" edge="1">
          <mxGeometry width="50" height="50" relative="1" as="geometry">
            <mxPoint x="587" y="450" as="sourcePoint" />
            <mxPoint x="557" y="450" as="targetPoint" />
          </mxGeometry>
        </mxCell>
        <mxCell id="u-2fl0tlQYIkl3K2YeA4-33" value="vlan database" style="text;html=1;align=center;verticalAlign=middle;resizable=0;points=[];autosize=1;strokeColor=none;fillColor=none;fontSize=13;" parent="1" vertex="1">
          <mxGeometry x="109" y="150" width="100" height="30" as="geometry" />
        </mxCell>
        <mxCell id="u-2fl0tlQYIkl3K2YeA4-34" value="Adapter2" style="text;html=1;align=center;verticalAlign=middle;resizable=0;points=[];autosize=1;strokeColor=none;fillColor=none;fontSize=13;" parent="1" vertex="1">
          <mxGeometry x="120" y="490" width="80" height="30" as="geometry" />
        </mxCell>
        <mxCell id="u-2fl0tlQYIkl3K2YeA4-35" value="Adapter2" style="text;html=1;align=center;verticalAlign=middle;resizable=0;points=[];autosize=1;strokeColor=none;fillColor=none;fontSize=13;" parent="1" vertex="1">
          <mxGeometry x="465" y="410" width="80" height="30" as="geometry" />
        </mxCell>
        <mxCell id="u-2fl0tlQYIkl3K2YeA4-37" value="Adapter1&lt;br&gt;host-only" style="text;html=1;align=center;verticalAlign=middle;resizable=0;points=[];autosize=1;strokeColor=none;fillColor=none;fontSize=13;" parent="1" vertex="1">
          <mxGeometry x="119" y="380" width="80" height="40" as="geometry" />
        </mxCell>
        <mxCell id="u-2fl0tlQYIkl3K2YeA4-38" value="Adapter1&lt;br&gt;host-only" style="text;html=1;align=center;verticalAlign=middle;resizable=0;points=[];autosize=1;strokeColor=none;fillColor=none;fontSize=13;" parent="1" vertex="1">
          <mxGeometry x="619" y="380" width="80" height="40" as="geometry" />
        </mxCell>
        <mxCell id="u-2fl0tlQYIkl3K2YeA4-39" value="Adapter3" style="text;html=1;align=center;verticalAlign=middle;resizable=0;points=[];autosize=1;strokeColor=none;fillColor=none;fontSize=13;" parent="1" vertex="1">
          <mxGeometry x="590" y="490" width="80" height="30" as="geometry" />
        </mxCell>
        <mxCell id="u-2fl0tlQYIkl3K2YeA4-40" value="Adapter3" style="text;html=1;align=center;verticalAlign=middle;resizable=0;points=[];autosize=1;strokeColor=none;fillColor=none;fontSize=13;" parent="1" vertex="1">
          <mxGeometry x="240" y="410" width="80" height="30" as="geometry" />
        </mxCell>
        <mxCell id="u-2fl0tlQYIkl3K2YeA4-41" value="&lt;p style=&quot;line-height: 200%; font-size: 12px;&quot;&gt;&lt;font style=&quot;font-size: 12px;&quot;&gt;tagged&lt;br&gt;&lt;b&gt;LAN 2&lt;/b&gt;&lt;/font&gt;&lt;/p&gt;" style="text;html=1;align=center;verticalAlign=middle;resizable=0;points=[];autosize=1;strokeColor=none;fillColor=none;fontSize=13;" parent="1" vertex="1">
          <mxGeometry x="360" y="395" width="60" height="90" as="geometry" />
        </mxCell>
        <mxCell id="u-2fl0tlQYIkl3K2YeA4-42" value="Adapter1" style="text;html=1;align=center;verticalAlign=middle;resizable=0;points=[];autosize=1;strokeColor=none;fillColor=none;fontSize=12;" parent="1" vertex="1">
          <mxGeometry x="200" y="590" width="70" height="30" as="geometry" />
        </mxCell>
        <mxCell id="u-2fl0tlQYIkl3K2YeA4-43" value="Adapter1" style="text;html=1;align=center;verticalAlign=middle;resizable=0;points=[];autosize=1;strokeColor=none;fillColor=none;fontSize=12;" parent="1" vertex="1">
          <mxGeometry x="520" y="590" width="70" height="30" as="geometry" />
        </mxCell>
        <mxCell id="u-2fl0tlQYIkl3K2YeA4-45" value="port1" style="rounded=0;whiteSpace=wrap;html=1;labelBackgroundColor=none;fontSize=12;labelBorderColor=none;fillColor=#e1d5e7;strokeColor=#9673a6;" parent="1" vertex="1">
          <mxGeometry x="199" y="496.25" width="40" height="17.5" as="geometry" />
        </mxCell>
        <mxCell id="u-2fl0tlQYIkl3K2YeA4-46" value="port1" style="rounded=0;whiteSpace=wrap;html=1;labelBackgroundColor=none;fontSize=12;labelBorderColor=none;fillColor=#e1d5e7;strokeColor=#9673a6;" parent="1" vertex="1">
          <mxGeometry x="480" y="446.25" width="40" height="17.5" as="geometry" />
        </mxCell>
        <mxCell id="u-2fl0tlQYIkl3K2YeA4-47" value="port2" style="rounded=0;whiteSpace=wrap;html=1;labelBackgroundColor=none;fontSize=12;labelBorderColor=none;fillColor=#e1d5e7;strokeColor=#9673a6;" parent="1" vertex="1">
          <mxGeometry x="270" y="446.25" width="40" height="17.5" as="geometry" />
        </mxCell>
        <mxCell id="u-2fl0tlQYIkl3K2YeA4-48" value="port2" style="rounded=0;whiteSpace=wrap;html=1;labelBackgroundColor=none;fontSize=12;labelBorderColor=none;fillColor=#e1d5e7;strokeColor=#9673a6;" parent="1" vertex="1">
          <mxGeometry x="553" y="500" width="40" height="17.5" as="geometry" />
        </mxCell>
        <mxCell id="u-2fl0tlQYIkl3K2YeA4-51" value="080027BEAA4D" style="text;html=1;align=center;verticalAlign=middle;resizable=0;points=[];autosize=1;strokeColor=#82b366;fillColor=#d5e8d4;fontSize=12;" parent="1" vertex="1">
          <mxGeometry x="9" y="620" width="110" height="30" as="geometry" />
        </mxCell>
        <mxCell id="u-2fl0tlQYIkl3K2YeA4-52" value="0800275E6D70" style="text;html=1;align=center;verticalAlign=middle;resizable=0;points=[];autosize=1;strokeColor=#82b366;fillColor=#d5e8d4;fontSize=12;" parent="1" vertex="1">
          <mxGeometry x="670" y="620" width="110" height="30" as="geometry" />
        </mxCell>
        <mxCell id="u-2fl0tlQYIkl3K2YeA4-53" value="&lt;font style=&quot;font-size: 13px;&quot;&gt;vlan&lt;br&gt;workstations, tag 5&lt;/font&gt;" style="line;strokeWidth=4;html=1;perimeter=backbonePerimeter;points=[];outlineConnect=0;labelBackgroundColor=default;labelBorderColor=none;fontSize=16;strokeColor=#d79b00;horizontal=1;verticalAlign=middle;fillColor=#ffe6cc;" parent="1" vertex="1">
          <mxGeometry x="184" y="190" width="230" height="10" as="geometry" />
        </mxCell>
        <mxCell id="u-2fl0tlQYIkl3K2YeA4-54" value="" style="endArrow=none;html=1;rounded=0;strokeWidth=3;fontSize=16;fontColor=default;startSize=8;endSize=11;jumpSize=10;fillColor=#ffe6cc;strokeColor=#d79b00;" parent="1" edge="1">
          <mxGeometry width="50" height="50" relative="1" as="geometry">
            <mxPoint x="184" y="240" as="sourcePoint" />
            <mxPoint x="410" y="240" as="targetPoint" />
          </mxGeometry>
        </mxCell>
        <mxCell id="u-2fl0tlQYIkl3K2YeA4-57" value="untagged" style="edgeLabel;html=1;align=center;verticalAlign=middle;resizable=0;points=[];fontSize=16;fontColor=default;" parent="u-2fl0tlQYIkl3K2YeA4-54" vertex="1" connectable="0">
          <mxGeometry x="-0.2124" relative="1" as="geometry">
            <mxPoint x="17" as="offset" />
          </mxGeometry>
        </mxCell>
        <mxCell id="u-2fl0tlQYIkl3K2YeA4-56" value="" style="endArrow=none;html=1;rounded=0;strokeWidth=3;fontSize=16;fontColor=default;startSize=8;endSize=11;jumpSize=10;fillColor=#ffe6cc;strokeColor=#d79b00;dashed=1;" parent="1" edge="1">
          <mxGeometry width="50" height="50" relative="1" as="geometry">
            <mxPoint x="184" y="260" as="sourcePoint" />
            <mxPoint x="410" y="260" as="targetPoint" />
          </mxGeometry>
        </mxCell>
        <mxCell id="u-2fl0tlQYIkl3K2YeA4-58" value="tagged" style="edgeLabel;html=1;align=center;verticalAlign=middle;resizable=0;points=[];fontSize=16;fontColor=default;" parent="u-2fl0tlQYIkl3K2YeA4-56" vertex="1" connectable="0">
          <mxGeometry x="0.2212" y="1" relative="1" as="geometry">
            <mxPoint x="-32" y="1" as="offset" />
          </mxGeometry>
        </mxCell>
        <mxCell id="u-2fl0tlQYIkl3K2YeA4-60" value="port3" style="rounded=0;whiteSpace=wrap;html=1;labelBackgroundColor=none;fontSize=12;labelBorderColor=none;fillColor=#e1d5e7;strokeColor=#9673a6;" parent="1" vertex="1">
          <mxGeometry x="550" y="391.25" width="40" height="17.5" as="geometry" />
        </mxCell>
        <mxCell id="u-2fl0tlQYIkl3K2YeA4-61" value="Adapter4" style="text;html=1;align=center;verticalAlign=middle;resizable=0;points=[];autosize=1;strokeColor=none;fillColor=none;fontSize=13;" parent="1" vertex="1">
          <mxGeometry x="513" y="365" width="80" height="30" as="geometry" />
        </mxCell>
        <mxCell id="u-2fl0tlQYIkl3K2YeA4-62" value="eth0" style="rounded=0;whiteSpace=wrap;html=1;labelBackgroundColor=none;fontSize=12;labelBorderColor=none;fillColor=#e1d5e7;strokeColor=#9673a6;" parent="1" vertex="1">
          <mxGeometry x="590" y="270" width="40" height="17.5" as="geometry" />
        </mxCell>
        <mxCell id="u-2fl0tlQYIkl3K2YeA4-63" value="Adapter1" style="text;html=1;align=center;verticalAlign=middle;resizable=0;points=[];autosize=1;strokeColor=none;fillColor=none;fontSize=13;" parent="1" vertex="1">
          <mxGeometry x="645" y="227.5" width="80" height="30" as="geometry" />
        </mxCell>
        <mxCell id="u-2fl0tlQYIkl3K2YeA4-64" value="&lt;b style=&quot;border-color: var(--border-color);&quot;&gt;&lt;font style=&quot;border-color: var(--border-color); font-size: 12px;&quot;&gt;LAN1&lt;/font&gt;&lt;/b&gt;" style="text;html=1;align=center;verticalAlign=middle;resizable=0;points=[];autosize=1;strokeColor=none;fillColor=none;fontSize=16;fontColor=default;" parent="1" vertex="1">
          <mxGeometry x="199" y="530" width="50" height="30" as="geometry" />
        </mxCell>
        <mxCell id="u-2fl0tlQYIkl3K2YeA4-65" value="&lt;b style=&quot;border-color: var(--border-color);&quot;&gt;&lt;font style=&quot;border-color: var(--border-color); font-size: 12px;&quot;&gt;LAN3&lt;/font&gt;&lt;/b&gt;" style="text;html=1;align=center;verticalAlign=middle;resizable=0;points=[];autosize=1;strokeColor=none;fillColor=none;fontSize=16;fontColor=default;" parent="1" vertex="1">
          <mxGeometry x="595" y="530" width="50" height="30" as="geometry" />
        </mxCell>
        <mxCell id="u-2fl0tlQYIkl3K2YeA4-66" value="&lt;b&gt;LANX&lt;/b&gt;" style="text;html=1;align=center;verticalAlign=middle;resizable=0;points=[];autosize=1;strokeColor=none;fillColor=none;fontSize=12;fontColor=default;rotation=75;" parent="1" vertex="1">
          <mxGeometry x="570" y="330" width="60" height="30" as="geometry" />
        </mxCell>
        <mxCell id="u-2fl0tlQYIkl3K2YeA4-67" value="080027D1B180" style="text;html=1;align=center;verticalAlign=middle;resizable=0;points=[];autosize=1;strokeColor=#82b366;fillColor=#d5e8d4;fontSize=12;" parent="1" vertex="1">
          <mxGeometry x="645" y="257.5" width="110" height="30" as="geometry" />
        </mxCell>
        <mxCell id="lJZxRwwcdn6ER4Lw7EG7-1" value="&quot;MitÃ¤ on kytkettynÃ¤ ja minne???&quot;" style="text;html=1;align=center;verticalAlign=middle;resizable=0;points=[];autosize=1;strokeColor=none;fillColor=none;" parent="1" vertex="1">
          <mxGeometry x="310" y="70" width="200" height="30" as="geometry" />
        </mxCell>
      </root>
    </mxGraphModel>
  </diagram>
  <diagram name="v2 FYYSINEN TOPOLOGIA" id="S0Jn3PW4vJGnqGoC1sf6">
    <mxGraphModel dx="3154" dy="2799" grid="1" gridSize="10" guides="1" tooltips="1" connect="1" arrows="1" fold="1" page="1" pageScale="1" pageWidth="827" pageHeight="1169" math="0" shadow="0">
      <root>
        <mxCell id="UjOCbqU0MYQvJ_P7pini-0" />
        <mxCell id="UjOCbqU0MYQvJ_P7pini-1" parent="UjOCbqU0MYQvJ_P7pini-0" />
        <mxCell id="UjOCbqU0MYQvJ_P7pini-2" value="&lt;font style=&quot;font-size: 17px;&quot;&gt;&lt;b&gt;Fyysinen Topologia E16 - Anni OrilÃ¤hde AC8081&lt;/b&gt;&lt;/font&gt;" style="text;html=1;align=center;verticalAlign=middle;resizable=0;points=[];autosize=1;strokeColor=none;fillColor=none;" parent="UjOCbqU0MYQvJ_P7pini-1" vertex="1">
          <mxGeometry x="184.5" y="-447.32" width="410" height="30" as="geometry" />
        </mxCell>
        <mxCell id="UjOCbqU0MYQvJ_P7pini-3" value="Lubuntu-tietoverkot" style="fontColor=#0066CC;verticalAlign=top;verticalLabelPosition=bottom;labelPosition=center;align=center;html=1;outlineConnect=0;fillColor=#CCCCCC;strokeColor=#6881B3;gradientColor=none;gradientDirection=north;strokeWidth=2;shape=mxgraph.networks.pc;fontSize=17;" parent="UjOCbqU0MYQvJ_P7pini-1" vertex="1">
          <mxGeometry x="270" y="631" width="140" height="90" as="geometry" />
        </mxCell>
        <mxCell id="UjOCbqU0MYQvJ_P7pini-4" value="Lubuntu-tietoverkot2" style="fontColor=#0066CC;verticalAlign=top;verticalLabelPosition=bottom;labelPosition=center;align=center;html=1;outlineConnect=0;fillColor=#CCCCCC;strokeColor=#6881B3;gradientColor=none;gradientDirection=north;strokeWidth=2;shape=mxgraph.networks.pc;fontSize=17;" parent="UjOCbqU0MYQvJ_P7pini-1" vertex="1">
          <mxGeometry x="957.5" y="1031" width="140" height="90" as="geometry" />
        </mxCell>
        <mxCell id="UjOCbqU0MYQvJ_P7pini-5" value="&lt;font style=&quot;font-size: 13px;&quot;&gt;Switch&lt;/font&gt;" style="html=1;whiteSpace=wrap;shape=isoCube2;backgroundOutline=1;isoAngle=15;fontSize=17;" parent="UjOCbqU0MYQvJ_P7pini-1" vertex="1">
          <mxGeometry x="562" y="386" width="150" height="90" as="geometry" />
        </mxCell>
        <mxCell id="UjOCbqU0MYQvJ_P7pini-6" value="&lt;font style=&quot;font-size: 13px;&quot;&gt;Switch2&lt;/font&gt;" style="html=1;whiteSpace=wrap;shape=isoCube2;backgroundOutline=1;isoAngle=15;fontSize=17;" parent="UjOCbqU0MYQvJ_P7pini-1" vertex="1">
          <mxGeometry x="962" y="386" width="150" height="90" as="geometry" />
        </mxCell>
        <mxCell id="UjOCbqU0MYQvJ_P7pini-7" value="" style="shape=cylinder3;whiteSpace=wrap;html=1;boundedLbl=1;backgroundOutline=1;size=15;fontSize=13;" parent="UjOCbqU0MYQvJ_P7pini-1" vertex="1">
          <mxGeometry x="14.5" y="-355.78" width="110" height="70" as="geometry" />
        </mxCell>
        <mxCell id="UjOCbqU0MYQvJ_P7pini-8" value="Vyos_Reititin1" style="shape=cylinder3;whiteSpace=wrap;html=1;boundedLbl=1;backgroundOutline=1;size=15;fontSize=13;" parent="UjOCbqU0MYQvJ_P7pini-1" vertex="1">
          <mxGeometry x="1004.5" y="158.5" width="110" height="70" as="geometry" />
        </mxCell>
        <mxCell id="UjOCbqU0MYQvJ_P7pini-9" value="" style="endArrow=classic;html=1;rounded=0;fontSize=13;" parent="UjOCbqU0MYQvJ_P7pini-1" edge="1">
          <mxGeometry width="50" height="50" relative="1" as="geometry">
            <mxPoint x="1069.5" y="172.5" as="sourcePoint" />
            <mxPoint x="1109.5" y="172.5" as="targetPoint" />
          </mxGeometry>
        </mxCell>
        <mxCell id="UjOCbqU0MYQvJ_P7pini-10" value="" style="endArrow=classic;html=1;rounded=0;fontSize=13;" parent="UjOCbqU0MYQvJ_P7pini-1" edge="1">
          <mxGeometry width="50" height="50" relative="1" as="geometry">
            <mxPoint x="1048.5" y="172.5" as="sourcePoint" />
            <mxPoint x="1008.5" y="172.5" as="targetPoint" />
          </mxGeometry>
        </mxCell>
        <mxCell id="UjOCbqU0MYQvJ_P7pini-11" value="" style="endArrow=classic;html=1;rounded=0;fontSize=13;" parent="UjOCbqU0MYQvJ_P7pini-1" edge="1">
          <mxGeometry width="50" height="50" relative="1" as="geometry">
            <mxPoint x="1059.5" y="158.5" as="sourcePoint" />
            <mxPoint x="1059.33" y="168.5" as="targetPoint" />
          </mxGeometry>
        </mxCell>
        <mxCell id="UjOCbqU0MYQvJ_P7pini-12" value="" style="endArrow=classic;html=1;rounded=0;fontSize=13;" parent="UjOCbqU0MYQvJ_P7pini-1" edge="1">
          <mxGeometry width="50" height="50" relative="1" as="geometry">
            <mxPoint x="1059.5700000000002" y="183.5" as="sourcePoint" />
            <mxPoint x="1059.4" y="173.5" as="targetPoint" />
            <Array as="points">
              <mxPoint x="1059.5" y="188.5" />
            </Array>
          </mxGeometry>
        </mxCell>
        <mxCell id="UjOCbqU0MYQvJ_P7pini-13" value="" style="endArrow=none;html=1;rounded=0;fontSize=13;entryX=0.303;entryY=1.005;entryDx=0;entryDy=0;entryPerimeter=0;endSize=11;startSize=8;jumpSize=10;strokeWidth=4;fillColor=#60a917;strokeColor=#2D7600;dashed=1;dashPattern=1 1;" parent="UjOCbqU0MYQvJ_P7pini-1" source="UjOCbqU0MYQvJ_P7pini-6" target="UjOCbqU0MYQvJ_P7pini-8" edge="1">
          <mxGeometry width="50" height="50" relative="1" as="geometry">
            <mxPoint x="982" y="376" as="sourcePoint" />
            <mxPoint x="1032" y="326" as="targetPoint" />
          </mxGeometry>
        </mxCell>
        <mxCell id="UjOCbqU0MYQvJ_P7pini-14" value="" style="endArrow=none;html=1;rounded=0;strokeWidth=4;fontSize=13;startSize=8;endSize=11;jumpSize=10;fillColor=#1ba1e2;strokeColor=#006EAF;exitX=0.5;exitY=0.07;exitDx=0;exitDy=0;exitPerimeter=0;" parent="UjOCbqU0MYQvJ_P7pini-1" source="UjOCbqU0MYQvJ_P7pini-4" edge="1">
          <mxGeometry x="0.0037" width="50" height="50" relative="1" as="geometry">
            <mxPoint x="1016.5" y="941" as="sourcePoint" />
            <mxPoint x="1026.5" y="831" as="targetPoint" />
            <mxPoint as="offset" />
          </mxGeometry>
        </mxCell>
        <mxCell id="UjOCbqU0MYQvJ_P7pini-15" value="" style="endArrow=none;html=1;rounded=0;strokeWidth=4;fontSize=13;startSize=8;endSize=11;jumpSize=10;exitX=0.5;exitY=0.07;exitDx=0;exitDy=0;exitPerimeter=0;fillColor=#60a917;strokeColor=#2D7600;entryX=0;entryY=0;entryDx=0;entryDy=53.9881861379826;entryPerimeter=0;" parent="UjOCbqU0MYQvJ_P7pini-1" source="UjOCbqU0MYQvJ_P7pini-3" target="UjOCbqU0MYQvJ_P7pini-5" edge="1">
          <mxGeometry width="50" height="50" relative="1" as="geometry">
            <mxPoint x="346.9436363636363" y="631" as="sourcePoint" />
            <mxPoint x="343.0599999999996" y="510.99999999999994" as="targetPoint" />
          </mxGeometry>
        </mxCell>
        <mxCell id="UjOCbqU0MYQvJ_P7pini-16" value="" style="endArrow=none;html=1;rounded=0;strokeWidth=4;fontSize=13;startSize=8;endSize=11;jumpSize=10;dashed=1;exitX=0.081;exitY=0.353;exitDx=0;exitDy=0;exitPerimeter=0;fillColor=#60a917;strokeColor=#2D7600;" parent="UjOCbqU0MYQvJ_P7pini-1" source="UjOCbqU0MYQvJ_P7pini-6" edge="1">
          <mxGeometry width="50" height="50" relative="1" as="geometry">
            <mxPoint x="787.3399999999999" y="416" as="sourcePoint" />
            <mxPoint x="691.9999999999995" y="416" as="targetPoint" />
          </mxGeometry>
        </mxCell>
        <mxCell id="UjOCbqU0MYQvJ_P7pini-17" value="" style="endArrow=openThin;html=1;rounded=0;strokeWidth=1;fontSize=13;startSize=8;endSize=11;jumpSize=10;endFill=0;" parent="UjOCbqU0MYQvJ_P7pini-1" edge="1">
          <mxGeometry width="50" height="50" relative="1" as="geometry">
            <mxPoint x="1042" y="411" as="sourcePoint" />
            <mxPoint x="1082" y="411" as="targetPoint" />
          </mxGeometry>
        </mxCell>
        <mxCell id="UjOCbqU0MYQvJ_P7pini-18" value="" style="endArrow=openThin;html=1;rounded=0;strokeWidth=1;fontSize=13;startSize=8;endSize=11;jumpSize=10;endFill=0;" parent="UjOCbqU0MYQvJ_P7pini-1" edge="1">
          <mxGeometry width="50" height="50" relative="1" as="geometry">
            <mxPoint x="1052" y="420.99999999999994" as="sourcePoint" />
            <mxPoint x="1092" y="420.99999999999994" as="targetPoint" />
          </mxGeometry>
        </mxCell>
        <mxCell id="UjOCbqU0MYQvJ_P7pini-19" value="" style="endArrow=openThin;html=1;rounded=0;strokeWidth=1;fontSize=13;startSize=8;endSize=11;jumpSize=10;endFill=0;" parent="UjOCbqU0MYQvJ_P7pini-1" edge="1">
          <mxGeometry width="50" height="50" relative="1" as="geometry">
            <mxPoint x="642" y="416" as="sourcePoint" />
            <mxPoint x="682" y="416" as="targetPoint" />
          </mxGeometry>
        </mxCell>
        <mxCell id="UjOCbqU0MYQvJ_P7pini-20" value="" style="endArrow=openThin;html=1;rounded=0;strokeWidth=1;fontSize=13;startSize=8;endSize=11;jumpSize=10;endFill=0;" parent="UjOCbqU0MYQvJ_P7pini-1" edge="1">
          <mxGeometry width="50" height="50" relative="1" as="geometry">
            <mxPoint x="652" y="425.99999999999994" as="sourcePoint" />
            <mxPoint x="692" y="425.99999999999994" as="targetPoint" />
          </mxGeometry>
        </mxCell>
        <mxCell id="UjOCbqU0MYQvJ_P7pini-21" value="" style="endArrow=openThin;html=1;rounded=0;strokeWidth=1;fontSize=13;startSize=8;endSize=11;jumpSize=10;endFill=0;" parent="UjOCbqU0MYQvJ_P7pini-1" edge="1">
          <mxGeometry width="50" height="50" relative="1" as="geometry">
            <mxPoint x="622" y="416" as="sourcePoint" />
            <mxPoint x="582" y="416" as="targetPoint" />
          </mxGeometry>
        </mxCell>
        <mxCell id="UjOCbqU0MYQvJ_P7pini-22" value="" style="endArrow=openThin;html=1;rounded=0;strokeWidth=1;fontSize=13;startSize=8;endSize=11;jumpSize=10;endFill=0;" parent="UjOCbqU0MYQvJ_P7pini-1" edge="1">
          <mxGeometry width="50" height="50" relative="1" as="geometry">
            <mxPoint x="632" y="425.99999999999994" as="sourcePoint" />
            <mxPoint x="602" y="425.99999999999994" as="targetPoint" />
          </mxGeometry>
        </mxCell>
        <mxCell id="UjOCbqU0MYQvJ_P7pini-23" value="" style="endArrow=openThin;html=1;rounded=0;strokeWidth=1;fontSize=13;startSize=8;endSize=11;jumpSize=10;endFill=0;" parent="UjOCbqU0MYQvJ_P7pini-1" edge="1">
          <mxGeometry width="50" height="50" relative="1" as="geometry">
            <mxPoint x="1019" y="416" as="sourcePoint" />
            <mxPoint x="979" y="416" as="targetPoint" />
          </mxGeometry>
        </mxCell>
        <mxCell id="UjOCbqU0MYQvJ_P7pini-24" value="" style="endArrow=openThin;html=1;rounded=0;strokeWidth=1;fontSize=13;startSize=8;endSize=11;jumpSize=10;endFill=0;" parent="UjOCbqU0MYQvJ_P7pini-1" edge="1">
          <mxGeometry width="50" height="50" relative="1" as="geometry">
            <mxPoint x="1029" y="425.99999999999994" as="sourcePoint" />
            <mxPoint x="999" y="425.99999999999994" as="targetPoint" />
          </mxGeometry>
        </mxCell>
        <mxCell id="UjOCbqU0MYQvJ_P7pini-25" value="vlan database" style="text;html=1;align=center;verticalAlign=middle;resizable=0;points=[];autosize=1;strokeColor=none;fillColor=none;fontSize=13;" parent="UjOCbqU0MYQvJ_P7pini-1" vertex="1">
          <mxGeometry x="19.5" y="-327.32" width="100" height="30" as="geometry" />
        </mxCell>
        <mxCell id="UjOCbqU0MYQvJ_P7pini-26" value="Adapter2" style="text;html=1;align=center;verticalAlign=middle;resizable=0;points=[];autosize=1;strokeColor=none;fillColor=none;fontSize=13;" parent="UjOCbqU0MYQvJ_P7pini-1" vertex="1">
          <mxGeometry x="486" y="386" width="80" height="30" as="geometry" />
        </mxCell>
        <mxCell id="UjOCbqU0MYQvJ_P7pini-27" value="Adapter2" style="text;html=1;align=center;verticalAlign=middle;resizable=0;points=[];autosize=1;strokeColor=none;fillColor=none;fontSize=13;" parent="UjOCbqU0MYQvJ_P7pini-1" vertex="1">
          <mxGeometry x="907" y="386" width="80" height="30" as="geometry" />
        </mxCell>
        <mxCell id="UjOCbqU0MYQvJ_P7pini-28" value="Adapter1&lt;br&gt;host-only" style="text;html=1;align=center;verticalAlign=middle;resizable=0;points=[];autosize=1;strokeColor=none;fillColor=none;fontSize=13;" parent="UjOCbqU0MYQvJ_P7pini-1" vertex="1">
          <mxGeometry x="561" y="356" width="80" height="40" as="geometry" />
        </mxCell>
        <mxCell id="UjOCbqU0MYQvJ_P7pini-29" value="Adapter1&lt;br&gt;host-only" style="text;html=1;align=center;verticalAlign=middle;resizable=0;points=[];autosize=1;strokeColor=none;fillColor=none;fontSize=13;" parent="UjOCbqU0MYQvJ_P7pini-1" vertex="1">
          <mxGeometry x="1102" y="411" width="80" height="40" as="geometry" />
        </mxCell>
        <mxCell id="UjOCbqU0MYQvJ_P7pini-30" value="Adapter3" style="text;html=1;align=center;verticalAlign=middle;resizable=0;points=[];autosize=1;strokeColor=none;fillColor=none;fontSize=13;" parent="UjOCbqU0MYQvJ_P7pini-1" vertex="1">
          <mxGeometry x="1092" y="475.99999999999994" width="80" height="30" as="geometry" />
        </mxCell>
        <mxCell id="UjOCbqU0MYQvJ_P7pini-31" value="Adapter3" style="text;html=1;align=center;verticalAlign=middle;resizable=0;points=[];autosize=1;strokeColor=none;fillColor=none;fontSize=13;" parent="UjOCbqU0MYQvJ_P7pini-1" vertex="1">
          <mxGeometry x="682" y="386" width="80" height="30" as="geometry" />
        </mxCell>
        <mxCell id="UjOCbqU0MYQvJ_P7pini-33" value="Adapter1" style="text;html=1;align=center;verticalAlign=middle;resizable=0;points=[];autosize=1;strokeColor=none;fillColor=none;fontSize=12;" parent="UjOCbqU0MYQvJ_P7pini-1" vertex="1">
          <mxGeometry x="201" y="661" width="70" height="30" as="geometry" />
        </mxCell>
        <mxCell id="UjOCbqU0MYQvJ_P7pini-34" value="Adapter1" style="text;html=1;align=center;verticalAlign=middle;resizable=0;points=[];autosize=1;strokeColor=none;fillColor=none;fontSize=12;" parent="UjOCbqU0MYQvJ_P7pini-1" vertex="1">
          <mxGeometry x="882.5" y="1031" width="70" height="30" as="geometry" />
        </mxCell>
        <mxCell id="UjOCbqU0MYQvJ_P7pini-35" value="port1" style="rounded=0;whiteSpace=wrap;html=1;labelBackgroundColor=none;fontSize=12;labelBorderColor=none;fillColor=#e1d5e7;strokeColor=#9673a6;" parent="UjOCbqU0MYQvJ_P7pini-1" vertex="1">
          <mxGeometry x="445" y="392.24999999999994" width="40" height="17.5" as="geometry" />
        </mxCell>
        <mxCell id="UjOCbqU0MYQvJ_P7pini-36" value="port1" style="rounded=0;whiteSpace=wrap;html=1;labelBackgroundColor=none;fontSize=12;labelBorderColor=none;fillColor=#e1d5e7;strokeColor=#9673a6;" parent="UjOCbqU0MYQvJ_P7pini-1" vertex="1">
          <mxGeometry x="932.5" y="345.94999999999993" width="40" height="17.5" as="geometry" />
        </mxCell>
        <mxCell id="UjOCbqU0MYQvJ_P7pini-37" value="port2" style="rounded=0;whiteSpace=wrap;html=1;labelBackgroundColor=none;fontSize=12;labelBorderColor=none;fillColor=#e1d5e7;strokeColor=#9673a6;" parent="UjOCbqU0MYQvJ_P7pini-1" vertex="1">
          <mxGeometry x="698" y="345.94999999999993" width="40" height="17.5" as="geometry" />
        </mxCell>
        <mxCell id="UjOCbqU0MYQvJ_P7pini-38" value="port2" style="rounded=0;whiteSpace=wrap;html=1;labelBackgroundColor=none;fontSize=12;labelBorderColor=none;fillColor=#e1d5e7;strokeColor=#9673a6;" parent="UjOCbqU0MYQvJ_P7pini-1" vertex="1">
          <mxGeometry x="1057" y="482.24999999999994" width="40" height="17.5" as="geometry" />
        </mxCell>
        <mxCell id="UjOCbqU0MYQvJ_P7pini-39" value="080027BEAA4D" style="text;html=1;align=center;verticalAlign=middle;resizable=0;points=[];autosize=1;strokeColor=#82b366;fillColor=#d5e8d4;fontSize=12;" parent="UjOCbqU0MYQvJ_P7pini-1" vertex="1">
          <mxGeometry x="160" y="632" width="110" height="30" as="geometry" />
        </mxCell>
        <mxCell id="UjOCbqU0MYQvJ_P7pini-40" value="0800275E6D70" style="text;html=1;align=center;verticalAlign=middle;resizable=0;points=[];autosize=1;strokeColor=#82b366;fillColor=#d5e8d4;fontSize=12;" parent="UjOCbqU0MYQvJ_P7pini-1" vertex="1">
          <mxGeometry x="841.5" y="1001" width="110" height="30" as="geometry" />
        </mxCell>
        <mxCell id="UjOCbqU0MYQvJ_P7pini-41" value="&lt;font style=&quot;font-size: 13px;&quot;&gt;vlan&lt;br&gt;workstations, tag 5&lt;/font&gt;" style="line;strokeWidth=4;html=1;perimeter=backbonePerimeter;points=[];outlineConnect=0;labelBackgroundColor=default;labelBorderColor=none;fontSize=16;strokeColor=#2D7600;horizontal=1;verticalAlign=middle;fillColor=#60a917;fontColor=#000000;" parent="UjOCbqU0MYQvJ_P7pini-1" vertex="1">
          <mxGeometry x="148.5" y="-345.78" width="230" height="10" as="geometry" />
        </mxCell>
        <mxCell id="UjOCbqU0MYQvJ_P7pini-42" value="" style="endArrow=none;html=1;rounded=0;strokeWidth=3;fontSize=16;fontColor=default;startSize=8;endSize=11;jumpSize=10;fillColor=#60a917;strokeColor=#2D7600;" parent="UjOCbqU0MYQvJ_P7pini-1" edge="1">
          <mxGeometry width="50" height="50" relative="1" as="geometry">
            <mxPoint x="394.5" y="-340.78" as="sourcePoint" />
            <mxPoint x="620.5" y="-340.78" as="targetPoint" />
          </mxGeometry>
        </mxCell>
        <mxCell id="UjOCbqU0MYQvJ_P7pini-43" value="untagged" style="edgeLabel;html=1;align=center;verticalAlign=middle;resizable=0;points=[];fontSize=16;fontColor=default;" parent="UjOCbqU0MYQvJ_P7pini-42" vertex="1" connectable="0">
          <mxGeometry x="-0.2124" relative="1" as="geometry">
            <mxPoint x="17" as="offset" />
          </mxGeometry>
        </mxCell>
        <mxCell id="UjOCbqU0MYQvJ_P7pini-44" value="" style="endArrow=none;html=1;rounded=0;strokeWidth=3;fontSize=16;fontColor=default;startSize=8;endSize=11;jumpSize=10;fillColor=#60a917;strokeColor=#2D7600;dashed=1;" parent="UjOCbqU0MYQvJ_P7pini-1" edge="1">
          <mxGeometry width="50" height="50" relative="1" as="geometry">
            <mxPoint x="394.5" y="-320.78" as="sourcePoint" />
            <mxPoint x="620.5" y="-320.78" as="targetPoint" />
          </mxGeometry>
        </mxCell>
        <mxCell id="UjOCbqU0MYQvJ_P7pini-45" value="tagged" style="edgeLabel;html=1;align=center;verticalAlign=middle;resizable=0;points=[];fontSize=16;fontColor=default;" parent="UjOCbqU0MYQvJ_P7pini-44" vertex="1" connectable="0">
          <mxGeometry x="0.2212" y="1" relative="1" as="geometry">
            <mxPoint x="-32" y="1" as="offset" />
          </mxGeometry>
        </mxCell>
        <mxCell id="UjOCbqU0MYQvJ_P7pini-46" value="port3" style="rounded=0;whiteSpace=wrap;html=1;labelBackgroundColor=none;fontSize=12;labelBorderColor=none;fillColor=#e1d5e7;strokeColor=#9673a6;" parent="UjOCbqU0MYQvJ_P7pini-1" vertex="1">
          <mxGeometry x="1062" y="371" width="40" height="17.5" as="geometry" />
        </mxCell>
        <mxCell id="UjOCbqU0MYQvJ_P7pini-47" value="Adapter4" style="text;html=1;align=center;verticalAlign=middle;resizable=0;points=[];autosize=1;strokeColor=none;fillColor=none;fontSize=13;" parent="UjOCbqU0MYQvJ_P7pini-1" vertex="1">
          <mxGeometry x="1052" y="341" width="80" height="30" as="geometry" />
        </mxCell>
        <mxCell id="UjOCbqU0MYQvJ_P7pini-48" value="eth0" style="rounded=0;whiteSpace=wrap;html=1;labelBackgroundColor=none;fontSize=12;labelBorderColor=none;fillColor=#e1d5e7;strokeColor=#9673a6;" parent="UjOCbqU0MYQvJ_P7pini-1" vertex="1">
          <mxGeometry x="1062.5" y="234.5" width="40" height="17.5" as="geometry" />
        </mxCell>
        <mxCell id="UjOCbqU0MYQvJ_P7pini-49" value="Adapter1" style="text;html=1;align=center;verticalAlign=middle;resizable=0;points=[];autosize=1;strokeColor=none;fillColor=none;fontSize=13;" parent="UjOCbqU0MYQvJ_P7pini-1" vertex="1">
          <mxGeometry x="1052" y="276" width="80" height="30" as="geometry" />
        </mxCell>
        <mxCell id="UjOCbqU0MYQvJ_P7pini-50" value="&lt;b style=&quot;border-color: var(--border-color);&quot;&gt;&lt;font style=&quot;border-color: var(--border-color); font-size: 12px;&quot;&gt;LAN1&lt;/font&gt;&lt;/b&gt;" style="text;html=1;align=center;verticalAlign=middle;resizable=0;points=[];autosize=1;strokeColor=none;fillColor=none;fontSize=16;fontColor=default;" parent="UjOCbqU0MYQvJ_P7pini-1" vertex="1">
          <mxGeometry x="391" y="524.75" width="50" height="30" as="geometry" />
        </mxCell>
        <mxCell id="UjOCbqU0MYQvJ_P7pini-51" value="&lt;b style=&quot;border-color: var(--border-color);&quot;&gt;&lt;font style=&quot;border-color: var(--border-color); font-size: 12px;&quot;&gt;LAN3&lt;/font&gt;&lt;/b&gt;" style="text;html=1;align=center;verticalAlign=middle;resizable=0;points=[];autosize=1;strokeColor=none;fillColor=none;fontSize=16;fontColor=default;" parent="UjOCbqU0MYQvJ_P7pini-1" vertex="1">
          <mxGeometry x="1052.5" y="601" width="50" height="30" as="geometry" />
        </mxCell>
        <mxCell id="UjOCbqU0MYQvJ_P7pini-52" value="&lt;b&gt;LANX&lt;/b&gt;" style="text;html=1;align=center;verticalAlign=middle;resizable=0;points=[];autosize=1;strokeColor=none;fillColor=none;fontSize=12;fontColor=default;rotation=90;" parent="UjOCbqU0MYQvJ_P7pini-1" vertex="1">
          <mxGeometry x="967" y="306" width="60" height="30" as="geometry" />
        </mxCell>
        <mxCell id="UjOCbqU0MYQvJ_P7pini-53" value="080027D1B180" style="text;html=1;align=center;verticalAlign=middle;resizable=0;points=[];autosize=1;strokeColor=#82b366;fillColor=#d5e8d4;fontSize=12;" parent="UjOCbqU0MYQvJ_P7pini-1" vertex="1">
          <mxGeometry x="1062" y="252" width="110" height="30" as="geometry" />
        </mxCell>
        <mxCell id="UjOCbqU0MYQvJ_P7pini-54" value="&quot;MitÃ¤ on kytkettynÃ¤ ja minne???&quot;" style="text;html=1;align=center;verticalAlign=middle;resizable=0;points=[];autosize=1;strokeColor=none;fillColor=none;" parent="UjOCbqU0MYQvJ_P7pini-1" vertex="1">
          <mxGeometry x="274.5" y="-407.32" width="200" height="30" as="geometry" />
        </mxCell>
        <mxCell id="P96JBIYV7ozx2PBtwoJV-0" value="&lt;font style=&quot;font-size: 13px;&quot;&gt;vlan&lt;br&gt;puuhamaa, tag 10&lt;/font&gt;" style="line;strokeWidth=4;html=1;perimeter=backbonePerimeter;points=[];outlineConnect=0;labelBackgroundColor=default;labelBorderColor=none;fontSize=16;strokeColor=#006EAF;horizontal=1;verticalAlign=middle;fillColor=#1ba1e2;fontColor=#000000;" parent="UjOCbqU0MYQvJ_P7pini-1" vertex="1">
          <mxGeometry x="148.5" y="-278.28" width="230" height="10" as="geometry" />
        </mxCell>
        <mxCell id="v49IvqHJ60gv65rNmqxB-2" value="" style="endArrow=none;html=1;rounded=0;strokeWidth=3;fontSize=16;fontColor=default;startSize=8;endSize=11;jumpSize=10;fillColor=#1ba1e2;strokeColor=#006EAF;" parent="UjOCbqU0MYQvJ_P7pini-1" edge="1">
          <mxGeometry width="50" height="50" relative="1" as="geometry">
            <mxPoint x="394.5" y="-273.46999999999997" as="sourcePoint" />
            <mxPoint x="620.5" y="-273.46999999999997" as="targetPoint" />
          </mxGeometry>
        </mxCell>
        <mxCell id="v49IvqHJ60gv65rNmqxB-3" value="untagged" style="edgeLabel;html=1;align=center;verticalAlign=middle;resizable=0;points=[];fontSize=16;fontColor=default;" parent="v49IvqHJ60gv65rNmqxB-2" vertex="1" connectable="0">
          <mxGeometry x="-0.2124" relative="1" as="geometry">
            <mxPoint x="17" as="offset" />
          </mxGeometry>
        </mxCell>
        <mxCell id="v49IvqHJ60gv65rNmqxB-4" value="" style="endArrow=none;html=1;rounded=0;strokeWidth=3;fontSize=16;fontColor=default;startSize=8;endSize=11;jumpSize=10;fillColor=#1ba1e2;strokeColor=#006EAF;dashed=1;" parent="UjOCbqU0MYQvJ_P7pini-1" edge="1">
          <mxGeometry width="50" height="50" relative="1" as="geometry">
            <mxPoint x="394.5" y="-253.46999999999997" as="sourcePoint" />
            <mxPoint x="620.5" y="-253.46999999999997" as="targetPoint" />
          </mxGeometry>
        </mxCell>
        <mxCell id="v49IvqHJ60gv65rNmqxB-5" value="tagged" style="edgeLabel;html=1;align=center;verticalAlign=middle;resizable=0;points=[];fontSize=16;fontColor=default;" parent="v49IvqHJ60gv65rNmqxB-4" vertex="1" connectable="0">
          <mxGeometry x="0.2212" y="1" relative="1" as="geometry">
            <mxPoint x="-32" y="1" as="offset" />
          </mxGeometry>
        </mxCell>
        <mxCell id="tyCNWaQdzNYnktI-TujZ-0" value="" style="endArrow=none;html=1;rounded=0;strokeWidth=4;fontSize=16;fontColor=default;startSize=8;endSize=11;jumpSize=10;fillColor=#1ba1e2;strokeColor=#006EAF;dashed=1;" parent="UjOCbqU0MYQvJ_P7pini-1" edge="1">
          <mxGeometry width="50" height="50" relative="1" as="geometry">
            <mxPoint x="702" y="445.99999999999994" as="sourcePoint" />
            <mxPoint x="952" y="445.99999999999994" as="targetPoint" />
            <Array as="points">
              <mxPoint x="818" y="445.99999999999994" />
            </Array>
          </mxGeometry>
        </mxCell>
        <mxCell id="tyCNWaQdzNYnktI-TujZ-2" value="" style="endArrow=none;html=1;rounded=0;fontSize=13;entryX=0.145;entryY=1;entryDx=0;entryDy=-4.35;entryPerimeter=0;endSize=11;startSize=8;jumpSize=10;strokeWidth=4;fillColor=#1ba1e2;strokeColor=#006EAF;dashed=1;dashPattern=1 1;exitX=0.362;exitY=0.111;exitDx=0;exitDy=0;exitPerimeter=0;" parent="UjOCbqU0MYQvJ_P7pini-1" source="UjOCbqU0MYQvJ_P7pini-6" target="UjOCbqU0MYQvJ_P7pini-8" edge="1">
          <mxGeometry width="50" height="50" relative="1" as="geometry">
            <mxPoint x="1018.406159773953" y="383.15" as="sourcePoint" />
            <mxPoint x="1005.5899999999999" y="233.5" as="targetPoint" />
          </mxGeometry>
        </mxCell>
        <mxCell id="Xs2TmGry_VjL51Z7ItaR-0" value="&lt;font style=&quot;font-size: 13px;&quot;&gt;vlan&lt;br&gt;network_devices, tag 4090&lt;/font&gt;" style="line;strokeWidth=4;html=1;perimeter=backbonePerimeter;points=[];outlineConnect=0;labelBackgroundColor=default;labelBorderColor=none;fontSize=16;strokeColor=#B20000;horizontal=1;verticalAlign=middle;fillColor=#e51400;fontColor=#000000;" parent="UjOCbqU0MYQvJ_P7pini-1" vertex="1">
          <mxGeometry x="148.5" y="-215.78000000000003" width="230" height="10" as="geometry" />
        </mxCell>
        <mxCell id="Xs2TmGry_VjL51Z7ItaR-1" value="" style="endArrow=none;html=1;rounded=0;strokeWidth=3;fontSize=16;fontColor=default;startSize=8;endSize=11;jumpSize=10;fillColor=#e51400;strokeColor=#B20000;" parent="UjOCbqU0MYQvJ_P7pini-1" edge="1">
          <mxGeometry width="50" height="50" relative="1" as="geometry">
            <mxPoint x="394.5" y="-211.49000000000007" as="sourcePoint" />
            <mxPoint x="620.5" y="-211.49000000000007" as="targetPoint" />
          </mxGeometry>
        </mxCell>
        <mxCell id="Xs2TmGry_VjL51Z7ItaR-2" value="untagged" style="edgeLabel;html=1;align=center;verticalAlign=middle;resizable=0;points=[];fontSize=16;fontColor=default;" parent="Xs2TmGry_VjL51Z7ItaR-1" vertex="1" connectable="0">
          <mxGeometry x="-0.2124" relative="1" as="geometry">
            <mxPoint x="17" as="offset" />
          </mxGeometry>
        </mxCell>
        <mxCell id="Xs2TmGry_VjL51Z7ItaR-3" value="" style="endArrow=none;html=1;rounded=0;strokeWidth=3;fontSize=16;fontColor=default;startSize=8;endSize=11;jumpSize=10;fillColor=#e51400;strokeColor=#B20000;dashed=1;" parent="UjOCbqU0MYQvJ_P7pini-1" edge="1">
          <mxGeometry width="50" height="50" relative="1" as="geometry">
            <mxPoint x="394.5" y="-191.49000000000007" as="sourcePoint" />
            <mxPoint x="620.5" y="-191.49000000000007" as="targetPoint" />
          </mxGeometry>
        </mxCell>
        <mxCell id="Xs2TmGry_VjL51Z7ItaR-4" value="tagged" style="edgeLabel;html=1;align=center;verticalAlign=middle;resizable=0;points=[];fontSize=16;fontColor=default;" parent="Xs2TmGry_VjL51Z7ItaR-3" vertex="1" connectable="0">
          <mxGeometry x="0.2212" y="1" relative="1" as="geometry">
            <mxPoint x="-32" y="1" as="offset" />
          </mxGeometry>
        </mxCell>
        <mxCell id="Xs2TmGry_VjL51Z7ItaR-5" value="" style="endArrow=none;html=1;rounded=0;strokeWidth=3;fontSize=16;fontColor=default;startSize=8;endSize=11;jumpSize=10;fillColor=#e51400;strokeColor=#B20000;dashed=1;" parent="UjOCbqU0MYQvJ_P7pini-1" edge="1">
          <mxGeometry width="50" height="50" relative="1" as="geometry">
            <mxPoint x="702" y="460.99999999999994" as="sourcePoint" />
            <mxPoint x="952" y="460.99999999999994" as="targetPoint" />
          </mxGeometry>
        </mxCell>
        <mxCell id="Xs2TmGry_VjL51Z7ItaR-7" value="" style="endArrow=none;html=1;rounded=0;fontSize=13;entryX=0.425;entryY=0.991;entryDx=0;entryDy=0;entryPerimeter=0;endSize=11;startSize=8;jumpSize=10;strokeWidth=4;fillColor=#e51400;strokeColor=#B20000;dashed=1;dashPattern=1 1;" parent="UjOCbqU0MYQvJ_P7pini-1" target="UjOCbqU0MYQvJ_P7pini-8" edge="1">
          <mxGeometry width="50" height="50" relative="1" as="geometry">
            <mxPoint x="1047.8161597739536" y="386" as="sourcePoint" />
            <mxPoint x="1035.0000000000005" y="236.35000000000014" as="targetPoint" />
          </mxGeometry>
        </mxCell>
        <mxCell id="q_FQPXTyiczj2LY2fRJq-0" value="Vyos_Reititin2" style="shape=cylinder3;whiteSpace=wrap;html=1;boundedLbl=1;backgroundOutline=1;size=15;fontSize=13;" parent="UjOCbqU0MYQvJ_P7pini-1" vertex="1">
          <mxGeometry x="721" y="160" width="110" height="70" as="geometry" />
        </mxCell>
        <mxCell id="q_FQPXTyiczj2LY2fRJq-1" value="Lubuntu-tietoverkot3" style="fontColor=#0066CC;verticalAlign=top;verticalLabelPosition=bottom;labelPosition=center;align=center;html=1;outlineConnect=0;fillColor=#CCCCCC;strokeColor=#6881B3;gradientColor=none;gradientDirection=north;strokeWidth=2;shape=mxgraph.networks.pc;fontSize=17;" parent="UjOCbqU0MYQvJ_P7pini-1" vertex="1">
          <mxGeometry x="391" y="150" width="140" height="90" as="geometry" />
        </mxCell>
        <mxCell id="q_FQPXTyiczj2LY2fRJq-2" value="080027BEAA4D" style="text;html=1;align=center;verticalAlign=middle;resizable=0;points=[];autosize=1;strokeColor=#82b366;fillColor=#d5e8d4;fontSize=12;" parent="UjOCbqU0MYQvJ_P7pini-1" vertex="1">
          <mxGeometry x="281" y="163" width="110" height="30" as="geometry" />
        </mxCell>
        <mxCell id="q_FQPXTyiczj2LY2fRJq-5" value="" style="endArrow=none;html=1;rounded=0;exitX=1;exitY=0.5;exitDx=0;exitDy=0;exitPerimeter=0;entryX=0;entryY=0.5;entryDx=0;entryDy=0;entryPerimeter=0;fillColor=#f0a30a;strokeColor=#BD7000;strokeWidth=3;" parent="UjOCbqU0MYQvJ_P7pini-1" source="q_FQPXTyiczj2LY2fRJq-1" target="q_FQPXTyiczj2LY2fRJq-0" edge="1">
          <mxGeometry width="50" height="50" relative="1" as="geometry">
            <mxPoint x="642.6" y="197.40999999999997" as="sourcePoint" />
            <mxPoint x="711" y="195" as="targetPoint" />
          </mxGeometry>
        </mxCell>
        <mxCell id="q_FQPXTyiczj2LY2fRJq-8" value="" style="endArrow=none;html=1;rounded=0;entryX=0;entryY=0.539;entryDx=0;entryDy=0;entryPerimeter=0;exitX=1;exitY=0.5;exitDx=0;exitDy=0;exitPerimeter=0;fillColor=#647687;strokeColor=#314354;strokeWidth=3;fontColor=#000000;" parent="UjOCbqU0MYQvJ_P7pini-1" source="q_FQPXTyiczj2LY2fRJq-0" target="UjOCbqU0MYQvJ_P7pini-8" edge="1">
          <mxGeometry width="50" height="50" relative="1" as="geometry">
            <mxPoint x="841" y="195" as="sourcePoint" />
            <mxPoint x="981" y="192" as="targetPoint" />
            <Array as="points" />
          </mxGeometry>
        </mxCell>
        <mxCell id="q_FQPXTyiczj2LY2fRJq-9" value="08002738DAB9" style="text;html=1;align=center;verticalAlign=middle;resizable=0;points=[];autosize=1;strokeColor=#82b366;fillColor=#d5e8d4;fontSize=12;" parent="UjOCbqU0MYQvJ_P7pini-1" vertex="1">
          <mxGeometry x="894.5" y="119.04000000000002" width="110" height="30" as="geometry" />
        </mxCell>
        <mxCell id="q_FQPXTyiczj2LY2fRJq-10" value="Adapter2" style="text;html=1;align=center;verticalAlign=middle;resizable=0;points=[];autosize=1;strokeColor=none;fillColor=none;fontSize=13;" parent="UjOCbqU0MYQvJ_P7pini-1" vertex="1">
          <mxGeometry x="932.5" y="167" width="80" height="30" as="geometry" />
        </mxCell>
        <mxCell id="q_FQPXTyiczj2LY2fRJq-12" value="&lt;font style=&quot;font-size: 13px;&quot;&gt;vlan&lt;br&gt;RtoR&lt;/font&gt;" style="line;strokeWidth=4;html=1;perimeter=backbonePerimeter;points=[];outlineConnect=0;labelBackgroundColor=default;labelBorderColor=none;fontSize=16;strokeColor=#314354;horizontal=1;verticalAlign=middle;fillColor=#647687;fontColor=#000000;" parent="UjOCbqU0MYQvJ_P7pini-1" vertex="1">
          <mxGeometry x="148.5" y="-85.75000000000006" width="230" height="10" as="geometry" />
        </mxCell>
        <mxCell id="q_FQPXTyiczj2LY2fRJq-13" value="" style="endArrow=none;html=1;rounded=0;strokeWidth=3;fontSize=16;fontColor=#000000;startSize=8;endSize=11;jumpSize=10;fillColor=#647687;strokeColor=#314354;" parent="UjOCbqU0MYQvJ_P7pini-1" edge="1">
          <mxGeometry width="50" height="50" relative="1" as="geometry">
            <mxPoint x="394.5" y="-81.75000000000006" as="sourcePoint" />
            <mxPoint x="620.5" y="-81.75000000000006" as="targetPoint" />
          </mxGeometry>
        </mxCell>
        <mxCell id="q_FQPXTyiczj2LY2fRJq-14" value="untagged" style="edgeLabel;html=1;align=center;verticalAlign=middle;resizable=0;points=[];fontSize=16;fontColor=default;" parent="q_FQPXTyiczj2LY2fRJq-13" vertex="1" connectable="0">
          <mxGeometry x="-0.2124" relative="1" as="geometry">
            <mxPoint x="17" as="offset" />
          </mxGeometry>
        </mxCell>
        <mxCell id="q_FQPXTyiczj2LY2fRJq-15" value="" style="endArrow=none;html=1;rounded=0;strokeWidth=3;fontSize=16;fontColor=#000000;startSize=8;endSize=11;jumpSize=10;fillColor=#647687;strokeColor=#314354;dashed=1;" parent="UjOCbqU0MYQvJ_P7pini-1" edge="1">
          <mxGeometry width="50" height="50" relative="1" as="geometry">
            <mxPoint x="394.5" y="-61.750000000000064" as="sourcePoint" />
            <mxPoint x="620.5" y="-61.750000000000064" as="targetPoint" />
          </mxGeometry>
        </mxCell>
        <mxCell id="q_FQPXTyiczj2LY2fRJq-16" value="tagged" style="edgeLabel;html=1;align=center;verticalAlign=middle;resizable=0;points=[];fontSize=16;fontColor=default;" parent="q_FQPXTyiczj2LY2fRJq-15" vertex="1" connectable="0">
          <mxGeometry x="0.2212" y="1" relative="1" as="geometry">
            <mxPoint x="-32" y="1" as="offset" />
          </mxGeometry>
        </mxCell>
        <mxCell id="q_FQPXTyiczj2LY2fRJq-18" value="Adapter1" style="text;html=1;align=center;verticalAlign=middle;resizable=0;points=[];autosize=1;strokeColor=none;fillColor=none;fontSize=13;" parent="UjOCbqU0MYQvJ_P7pini-1" vertex="1">
          <mxGeometry x="841" y="262.75" width="80" height="30" as="geometry" />
        </mxCell>
        <mxCell id="q_FQPXTyiczj2LY2fRJq-19" value="Adapter2" style="text;html=1;align=center;verticalAlign=middle;resizable=0;points=[];autosize=1;strokeColor=none;fillColor=none;fontSize=13;" parent="UjOCbqU0MYQvJ_P7pini-1" vertex="1">
          <mxGeometry x="651" y="167" width="80" height="30" as="geometry" />
        </mxCell>
        <mxCell id="q_FQPXTyiczj2LY2fRJq-20" value="Adapter1" style="text;html=1;align=center;verticalAlign=middle;resizable=0;points=[];autosize=1;strokeColor=none;fillColor=none;fontSize=13;" parent="UjOCbqU0MYQvJ_P7pini-1" vertex="1">
          <mxGeometry x="531" y="167" width="80" height="30" as="geometry" />
        </mxCell>
        <mxCell id="q_FQPXTyiczj2LY2fRJq-24" value="0800270C9170" style="text;html=1;align=center;verticalAlign=middle;resizable=0;points=[];autosize=1;strokeColor=#82b366;fillColor=#d5e8d4;fontSize=12;" parent="UjOCbqU0MYQvJ_P7pini-1" vertex="1">
          <mxGeometry x="811" y="240" width="110" height="30" as="geometry" />
        </mxCell>
        <mxCell id="q_FQPXTyiczj2LY2fRJq-25" value="eth1" style="rounded=0;whiteSpace=wrap;html=1;labelBackgroundColor=none;fontSize=12;labelBorderColor=none;fillColor=#e1d5e7;strokeColor=#9673a6;" parent="UjOCbqU0MYQvJ_P7pini-1" vertex="1">
          <mxGeometry x="964.5" y="150" width="40" height="17.5" as="geometry" />
        </mxCell>
        <mxCell id="q_FQPXTyiczj2LY2fRJq-26" value="eth0" style="rounded=0;whiteSpace=wrap;html=1;labelBackgroundColor=none;fontSize=12;labelBorderColor=none;fillColor=#e1d5e7;strokeColor=#9673a6;" parent="UjOCbqU0MYQvJ_P7pini-1" vertex="1">
          <mxGeometry x="811" y="270" width="40" height="15.5" as="geometry" />
        </mxCell>
        <mxCell id="q_FQPXTyiczj2LY2fRJq-27" value="080027899589" style="text;html=1;align=center;verticalAlign=middle;resizable=0;points=[];autosize=1;strokeColor=#82b366;fillColor=#d5e8d4;fontSize=12;" parent="UjOCbqU0MYQvJ_P7pini-1" vertex="1">
          <mxGeometry x="627" y="120.00000000000001" width="100" height="30" as="geometry" />
        </mxCell>
        <mxCell id="q_FQPXTyiczj2LY2fRJq-28" value="eth1" style="rounded=0;whiteSpace=wrap;html=1;labelBackgroundColor=none;fontSize=12;labelBorderColor=none;fillColor=#e1d5e7;strokeColor=#9673a6;" parent="UjOCbqU0MYQvJ_P7pini-1" vertex="1">
          <mxGeometry x="687" y="151.5" width="40" height="15.5" as="geometry" />
        </mxCell>
        <mxCell id="q_FQPXTyiczj2LY2fRJq-29" value="080027D1D4D3" style="text;html=1;align=center;verticalAlign=middle;resizable=0;points=[];autosize=1;strokeColor=#82b366;fillColor=#d5e8d4;fontSize=12;" parent="UjOCbqU0MYQvJ_P7pini-1" vertex="1">
          <mxGeometry x="496" y="120.00000000000001" width="110" height="30" as="geometry" />
        </mxCell>
        <mxCell id="q_FQPXTyiczj2LY2fRJq-30" value="enp0s3" style="rounded=0;whiteSpace=wrap;html=1;labelBackgroundColor=none;fontSize=12;labelBorderColor=none;fillColor=#e1d5e7;strokeColor=#9673a6;" parent="UjOCbqU0MYQvJ_P7pini-1" vertex="1">
          <mxGeometry x="566" y="152" width="40" height="15.5" as="geometry" />
        </mxCell>
        <mxCell id="q_FQPXTyiczj2LY2fRJq-32" value="Lubuntu-tietoverkot3" style="fontColor=#0066CC;verticalAlign=top;verticalLabelPosition=bottom;labelPosition=center;align=center;html=1;outlineConnect=0;fillColor=#CCCCCC;strokeColor=#6881B3;gradientColor=none;gradientDirection=north;strokeWidth=2;shape=mxgraph.networks.pc;fontSize=17;" parent="UjOCbqU0MYQvJ_P7pini-1" vertex="1">
          <mxGeometry x="391" y="150" width="140" height="90" as="geometry" />
        </mxCell>
        <mxCell id="-nr87sIiHmtJ3Nkxw3MJ-0" value="" style="endArrow=classic;html=1;rounded=0;fontSize=13;" parent="UjOCbqU0MYQvJ_P7pini-1" edge="1">
          <mxGeometry width="50" height="50" relative="1" as="geometry">
            <mxPoint x="786.5" y="172.5000000000001" as="sourcePoint" />
            <mxPoint x="826.5" y="172.5000000000001" as="targetPoint" />
          </mxGeometry>
        </mxCell>
        <mxCell id="-nr87sIiHmtJ3Nkxw3MJ-1" value="" style="endArrow=classic;html=1;rounded=0;fontSize=13;" parent="UjOCbqU0MYQvJ_P7pini-1" edge="1">
          <mxGeometry width="50" height="50" relative="1" as="geometry">
            <mxPoint x="765.5" y="172.5000000000001" as="sourcePoint" />
            <mxPoint x="725.5" y="172.5000000000001" as="targetPoint" />
          </mxGeometry>
        </mxCell>
        <mxCell id="-nr87sIiHmtJ3Nkxw3MJ-2" value="" style="endArrow=classic;html=1;rounded=0;fontSize=13;" parent="UjOCbqU0MYQvJ_P7pini-1" edge="1">
          <mxGeometry width="50" height="50" relative="1" as="geometry">
            <mxPoint x="776.5" y="158.4999999999999" as="sourcePoint" />
            <mxPoint x="776.3299999999999" y="168.4999999999999" as="targetPoint" />
          </mxGeometry>
        </mxCell>
        <mxCell id="-nr87sIiHmtJ3Nkxw3MJ-3" value="" style="endArrow=classic;html=1;rounded=0;fontSize=13;" parent="UjOCbqU0MYQvJ_P7pini-1" edge="1">
          <mxGeometry width="50" height="50" relative="1" as="geometry">
            <mxPoint x="776.5700000000002" y="183.4999999999999" as="sourcePoint" />
            <mxPoint x="776.4000000000001" y="173.4999999999999" as="targetPoint" />
            <Array as="points">
              <mxPoint x="776.5" y="188.5" />
            </Array>
          </mxGeometry>
        </mxCell>
        <mxCell id="t6XSDmaJLyAn6REZBIYh-2" value="&lt;font style=&quot;font-size: 13px;&quot;&gt;vlan&lt;br&gt;lankamaa&lt;/font&gt;" style="line;strokeWidth=4;html=1;perimeter=backbonePerimeter;points=[];outlineConnect=0;labelBackgroundColor=default;labelBorderColor=none;fontSize=16;strokeColor=#BD7000;horizontal=1;verticalAlign=middle;fillColor=#f0a30a;fontColor=#000000;" parent="UjOCbqU0MYQvJ_P7pini-1" vertex="1">
          <mxGeometry x="148.5" y="-165.32000000000005" width="230" height="10" as="geometry" />
        </mxCell>
        <mxCell id="t6XSDmaJLyAn6REZBIYh-3" value="" style="endArrow=none;html=1;rounded=0;strokeWidth=3;fontSize=16;fontColor=#000000;startSize=8;endSize=11;jumpSize=10;fillColor=#f0a30a;strokeColor=#BD7000;" parent="UjOCbqU0MYQvJ_P7pini-1" edge="1">
          <mxGeometry width="50" height="50" relative="1" as="geometry">
            <mxPoint x="394.5" y="-161.32" as="sourcePoint" />
            <mxPoint x="620.5" y="-161.32" as="targetPoint" />
          </mxGeometry>
        </mxCell>
        <mxCell id="t6XSDmaJLyAn6REZBIYh-4" value="untagged" style="edgeLabel;html=1;align=center;verticalAlign=middle;resizable=0;points=[];fontSize=16;fontColor=default;" parent="t6XSDmaJLyAn6REZBIYh-3" vertex="1" connectable="0">
          <mxGeometry x="-0.2124" relative="1" as="geometry">
            <mxPoint x="17" as="offset" />
          </mxGeometry>
        </mxCell>
        <mxCell id="t6XSDmaJLyAn6REZBIYh-5" value="" style="endArrow=none;html=1;rounded=0;strokeWidth=3;fontSize=16;fontColor=#000000;startSize=8;endSize=11;jumpSize=10;fillColor=#f0a30a;strokeColor=#BD7000;dashed=1;" parent="UjOCbqU0MYQvJ_P7pini-1" edge="1">
          <mxGeometry width="50" height="50" relative="1" as="geometry">
            <mxPoint x="394.5" y="-141.32" as="sourcePoint" />
            <mxPoint x="620.5" y="-141.32" as="targetPoint" />
          </mxGeometry>
        </mxCell>
        <mxCell id="t6XSDmaJLyAn6REZBIYh-6" value="tagged" style="edgeLabel;html=1;align=center;verticalAlign=middle;resizable=0;points=[];fontSize=16;fontColor=default;" parent="t6XSDmaJLyAn6REZBIYh-5" vertex="1" connectable="0">
          <mxGeometry x="0.2212" y="1" relative="1" as="geometry">
            <mxPoint x="-32" y="1" as="offset" />
          </mxGeometry>
        </mxCell>
        <mxCell id="tKoNID-Zwik1OMzjLWpx-0" value="080027F1448C" style="text;html=1;align=center;verticalAlign=middle;resizable=0;points=[];autosize=1;strokeColor=#82b366;fillColor=#d5e8d4;fontSize=12;" parent="UjOCbqU0MYQvJ_P7pini-1" vertex="1">
          <mxGeometry x="698" y="363.45" width="110" height="30" as="geometry" />
        </mxCell>
        <mxCell id="tKoNID-Zwik1OMzjLWpx-3" value="080027BAE842" style="text;html=1;align=center;verticalAlign=middle;resizable=0;points=[];autosize=1;strokeColor=#82b366;fillColor=#d5e8d4;fontSize=12;" parent="UjOCbqU0MYQvJ_P7pini-1" vertex="1">
          <mxGeometry x="445" y="409.74999999999994" width="110" height="30" as="geometry" />
        </mxCell>
        <mxCell id="tKoNID-Zwik1OMzjLWpx-4" value="08002789C475" style="text;html=1;align=center;verticalAlign=middle;resizable=0;points=[];autosize=1;strokeColor=#82b366;fillColor=#d5e8d4;fontSize=12;" parent="UjOCbqU0MYQvJ_P7pini-1" vertex="1">
          <mxGeometry x="862.5" y="363.45" width="110" height="30" as="geometry" />
        </mxCell>
        <mxCell id="tKoNID-Zwik1OMzjLWpx-5" value="080027EFCC4A" style="text;html=1;align=center;verticalAlign=middle;resizable=0;points=[];autosize=1;strokeColor=#82b366;fillColor=#d5e8d4;fontSize=12;" parent="UjOCbqU0MYQvJ_P7pini-1" vertex="1">
          <mxGeometry x="1057.5" y="500.99999999999994" width="110" height="30" as="geometry" />
        </mxCell>
        <mxCell id="yTJWhnIbVnFOeSbvuabL-0" value="&lt;font style=&quot;font-size: 13px;&quot;&gt;Switch3&lt;/font&gt;" style="html=1;whiteSpace=wrap;shape=isoCube2;backgroundOutline=1;isoAngle=15;fontSize=17;" parent="UjOCbqU0MYQvJ_P7pini-1" vertex="1">
          <mxGeometry x="952.5" y="736" width="150" height="90" as="geometry" />
        </mxCell>
        <mxCell id="yTJWhnIbVnFOeSbvuabL-1" value="" style="endArrow=openThin;html=1;rounded=0;strokeWidth=1;fontSize=13;startSize=8;endSize=11;jumpSize=10;endFill=0;" parent="UjOCbqU0MYQvJ_P7pini-1" edge="1">
          <mxGeometry width="50" height="50" relative="1" as="geometry">
            <mxPoint x="1032.5" y="761" as="sourcePoint" />
            <mxPoint x="1072.5" y="761" as="targetPoint" />
          </mxGeometry>
        </mxCell>
        <mxCell id="yTJWhnIbVnFOeSbvuabL-2" value="" style="endArrow=openThin;html=1;rounded=0;strokeWidth=1;fontSize=13;startSize=8;endSize=11;jumpSize=10;endFill=0;" parent="UjOCbqU0MYQvJ_P7pini-1" edge="1">
          <mxGeometry width="50" height="50" relative="1" as="geometry">
            <mxPoint x="1042.5" y="771" as="sourcePoint" />
            <mxPoint x="1082.5" y="771" as="targetPoint" />
          </mxGeometry>
        </mxCell>
        <mxCell id="yTJWhnIbVnFOeSbvuabL-3" value="" style="endArrow=openThin;html=1;rounded=0;strokeWidth=1;fontSize=13;startSize=8;endSize=11;jumpSize=10;endFill=0;" parent="UjOCbqU0MYQvJ_P7pini-1" edge="1">
          <mxGeometry width="50" height="50" relative="1" as="geometry">
            <mxPoint x="1009.5" y="766" as="sourcePoint" />
            <mxPoint x="969.5" y="766" as="targetPoint" />
          </mxGeometry>
        </mxCell>
        <mxCell id="yTJWhnIbVnFOeSbvuabL-4" value="" style="endArrow=openThin;html=1;rounded=0;strokeWidth=1;fontSize=13;startSize=8;endSize=11;jumpSize=10;endFill=0;" parent="UjOCbqU0MYQvJ_P7pini-1" edge="1">
          <mxGeometry width="50" height="50" relative="1" as="geometry">
            <mxPoint x="1019.5" y="776" as="sourcePoint" />
            <mxPoint x="989.5" y="776" as="targetPoint" />
          </mxGeometry>
        </mxCell>
        <mxCell id="yTJWhnIbVnFOeSbvuabL-5" value="Adapter1&lt;br&gt;host-only" style="text;html=1;align=center;verticalAlign=middle;resizable=0;points=[];autosize=1;strokeColor=none;fillColor=none;fontSize=13;" parent="UjOCbqU0MYQvJ_P7pini-1" vertex="1">
          <mxGeometry x="1092.5" y="761" width="80" height="40" as="geometry" />
        </mxCell>
        <mxCell id="yTJWhnIbVnFOeSbvuabL-6" value="Adapter3" style="text;html=1;align=center;verticalAlign=middle;resizable=0;points=[];autosize=1;strokeColor=none;fillColor=none;fontSize=13;" parent="UjOCbqU0MYQvJ_P7pini-1" vertex="1">
          <mxGeometry x="1062.5" y="819.75" width="80" height="30" as="geometry" />
        </mxCell>
        <mxCell id="yTJWhnIbVnFOeSbvuabL-7" value="port2" style="rounded=0;whiteSpace=wrap;html=1;labelBackgroundColor=none;fontSize=12;labelBorderColor=none;fillColor=#e1d5e7;strokeColor=#9673a6;" parent="UjOCbqU0MYQvJ_P7pini-1" vertex="1">
          <mxGeometry x="1032" y="832.25" width="40" height="17.5" as="geometry" />
        </mxCell>
        <mxCell id="yTJWhnIbVnFOeSbvuabL-8" value="port3" style="rounded=0;whiteSpace=wrap;html=1;labelBackgroundColor=none;fontSize=12;labelBorderColor=none;fillColor=#e1d5e7;strokeColor=#9673a6;" parent="UjOCbqU0MYQvJ_P7pini-1" vertex="1">
          <mxGeometry x="907" y="792" width="40" height="17.5" as="geometry" />
        </mxCell>
        <mxCell id="yTJWhnIbVnFOeSbvuabL-14" value="" style="endArrow=none;html=1;rounded=0;strokeWidth=3;fontSize=16;fontColor=default;startSize=8;endSize=11;jumpSize=10;fillColor=#e51400;strokeColor=#B20000;dashed=1;" parent="UjOCbqU0MYQvJ_P7pini-1" edge="1">
          <mxGeometry width="50" height="50" relative="1" as="geometry">
            <mxPoint x="672" y="469.74999999999994" as="sourcePoint" />
            <mxPoint x="962" y="759.75" as="targetPoint" />
          </mxGeometry>
        </mxCell>
        <mxCell id="yTJWhnIbVnFOeSbvuabL-16" value="&lt;b style=&quot;border-color: var(--border-color);&quot;&gt;&lt;font style=&quot;border-color: var(--border-color); font-size: 12px;&quot;&gt;LAN2&lt;/font&gt;&lt;/b&gt;" style="text;html=1;align=center;verticalAlign=middle;resizable=0;points=[];autosize=1;strokeColor=none;fillColor=none;fontSize=16;fontColor=default;" parent="UjOCbqU0MYQvJ_P7pini-1" vertex="1">
          <mxGeometry x="811" y="463.49999999999994" width="50" height="30" as="geometry" />
        </mxCell>
        <mxCell id="yTJWhnIbVnFOeSbvuabL-17" value="" style="endArrow=none;html=1;rounded=0;strokeWidth=3;fontSize=16;fontColor=default;startSize=8;endSize=11;jumpSize=10;fillColor=#e51400;strokeColor=#B20000;dashed=1;" parent="UjOCbqU0MYQvJ_P7pini-1" edge="1">
          <mxGeometry width="50" height="50" relative="1" as="geometry">
            <mxPoint x="1046" y="491.99999999999994" as="sourcePoint" />
            <mxPoint x="1046" y="721" as="targetPoint" />
          </mxGeometry>
        </mxCell>
        <mxCell id="yTJWhnIbVnFOeSbvuabL-19" value="" style="endArrow=none;html=1;rounded=0;strokeWidth=3;fontSize=16;fontColor=default;startSize=8;endSize=11;jumpSize=10;fillColor=#e51400;strokeColor=#007FFF;dashed=1;" parent="UjOCbqU0MYQvJ_P7pini-1" edge="1">
          <mxGeometry width="50" height="50" relative="1" as="geometry">
            <mxPoint x="1028" y="491.99999999999994" as="sourcePoint" />
            <mxPoint x="1028" y="721" as="targetPoint" />
          </mxGeometry>
        </mxCell>
        <mxCell id="yTJWhnIbVnFOeSbvuabL-21" value="" style="endArrow=none;html=1;rounded=0;strokeWidth=3;fontSize=16;fontColor=default;startSize=8;endSize=11;jumpSize=10;fillColor=#e51400;strokeColor=#2D7600;dashed=1;" parent="UjOCbqU0MYQvJ_P7pini-1" edge="1">
          <mxGeometry width="50" height="50" relative="1" as="geometry">
            <mxPoint x="1012" y="491.99999999999994" as="sourcePoint" />
            <mxPoint x="1012" y="721" as="targetPoint" />
          </mxGeometry>
        </mxCell>
        <mxCell id="yTJWhnIbVnFOeSbvuabL-22" value="" style="endArrow=none;html=1;rounded=0;strokeWidth=3;fontSize=16;fontColor=default;startSize=8;endSize=11;jumpSize=10;fillColor=#e51400;strokeColor=#007FFF;dashed=1;" parent="UjOCbqU0MYQvJ_P7pini-1" edge="1">
          <mxGeometry width="50" height="50" relative="1" as="geometry">
            <mxPoint x="657" y="481.99999999999994" as="sourcePoint" />
            <mxPoint x="947" y="772" as="targetPoint" />
          </mxGeometry>
        </mxCell>
        <mxCell id="yTJWhnIbVnFOeSbvuabL-23" value="" style="endArrow=none;html=1;rounded=0;strokeWidth=3;fontSize=16;fontColor=default;startSize=8;endSize=11;jumpSize=10;fillColor=#e51400;strokeColor=#2D7600;dashed=1;" parent="UjOCbqU0MYQvJ_P7pini-1" edge="1">
          <mxGeometry width="50" height="50" relative="1" as="geometry">
            <mxPoint x="642" y="493.49999999999994" as="sourcePoint" />
            <mxPoint x="932" y="783.5" as="targetPoint" />
          </mxGeometry>
        </mxCell>
        <mxCell id="yTJWhnIbVnFOeSbvuabL-26" value="port1" style="rounded=0;whiteSpace=wrap;html=1;labelBackgroundColor=none;fontSize=12;labelBorderColor=none;fillColor=#e1d5e7;strokeColor=#9673a6;" parent="UjOCbqU0MYQvJ_P7pini-1" vertex="1">
          <mxGeometry x="1057" y="721" width="40" height="17.5" as="geometry" />
        </mxCell>
        <mxCell id="yTJWhnIbVnFOeSbvuabL-27" value="Adapter2" style="text;html=1;align=center;verticalAlign=middle;resizable=0;points=[];autosize=1;strokeColor=none;fillColor=none;fontSize=13;" parent="UjOCbqU0MYQvJ_P7pini-1" vertex="1">
          <mxGeometry x="1092.5" y="714.75" width="80" height="30" as="geometry" />
        </mxCell>
        <mxCell id="yTJWhnIbVnFOeSbvuabL-28" value="080027CA207E" style="text;html=1;align=center;verticalAlign=middle;resizable=0;points=[];autosize=1;strokeColor=#82b366;fillColor=#d5e8d4;fontSize=12;" parent="UjOCbqU0MYQvJ_P7pini-1" vertex="1">
          <mxGeometry x="1057" y="691" width="110" height="30" as="geometry" />
        </mxCell>
        <mxCell id="yTJWhnIbVnFOeSbvuabL-29" value="080027192A65" style="text;html=1;align=center;verticalAlign=middle;resizable=0;points=[];autosize=1;strokeColor=#82b366;fillColor=#d5e8d4;fontSize=12;" parent="UjOCbqU0MYQvJ_P7pini-1" vertex="1">
          <mxGeometry x="1032" y="849.75" width="100" height="30" as="geometry" />
        </mxCell>
        <mxCell id="yTJWhnIbVnFOeSbvuabL-31" value="080027E38F69" style="text;html=1;align=center;verticalAlign=middle;resizable=0;points=[];autosize=1;strokeColor=#82b366;fillColor=#d5e8d4;fontSize=12;" parent="UjOCbqU0MYQvJ_P7pini-1" vertex="1">
          <mxGeometry x="837" y="809.5" width="110" height="30" as="geometry" />
        </mxCell>
        <mxCell id="yTJWhnIbVnFOeSbvuabL-32" value="Adapter4" style="text;html=1;align=center;verticalAlign=middle;resizable=0;points=[];autosize=1;strokeColor=none;fillColor=none;fontSize=13;" parent="UjOCbqU0MYQvJ_P7pini-1" vertex="1">
          <mxGeometry x="831" y="785.75" width="80" height="30" as="geometry" />
        </mxCell>
        <mxCell id="yTJWhnIbVnFOeSbvuabL-37" value="port3" style="rounded=0;whiteSpace=wrap;html=1;labelBackgroundColor=none;fontSize=12;labelBorderColor=none;fillColor=#e1d5e7;strokeColor=#9673a6;" parent="UjOCbqU0MYQvJ_P7pini-1" vertex="1">
          <mxGeometry x="616.5" y="518.25" width="40" height="17.5" as="geometry" />
        </mxCell>
        <mxCell id="yTJWhnIbVnFOeSbvuabL-38" value="080027566355D" style="text;html=1;align=center;verticalAlign=middle;resizable=0;points=[];autosize=1;strokeColor=#82b366;fillColor=#d5e8d4;fontSize=12;" parent="UjOCbqU0MYQvJ_P7pini-1" vertex="1">
          <mxGeometry x="546.5" y="542" width="110" height="30" as="geometry" />
        </mxCell>
        <mxCell id="yTJWhnIbVnFOeSbvuabL-39" value="Adapter4" style="text;html=1;align=center;verticalAlign=middle;resizable=0;points=[];autosize=1;strokeColor=none;fillColor=none;fontSize=13;" parent="UjOCbqU0MYQvJ_P7pini-1" vertex="1">
          <mxGeometry x="540.5" y="511.99999999999994" width="80" height="30" as="geometry" />
        </mxCell>
        <mxCell id="3dygmHklY2blo5hHiq3r-0" value="&lt;span style=&quot;font-size: 12px;&quot;&gt;&lt;b&gt;StoS&lt;/b&gt;&lt;/span&gt;" style="text;html=1;align=center;verticalAlign=middle;resizable=0;points=[];autosize=1;strokeColor=none;fillColor=none;fontSize=16;fontColor=default;" parent="UjOCbqU0MYQvJ_P7pini-1" vertex="1">
          <mxGeometry x="707" y="622" width="50" height="30" as="geometry" />
        </mxCell>
        <mxCell id="sUWVYARH6peec_n0L5PJ-0" value="&lt;b style=&quot;border-color: var(--border-color);&quot;&gt;&lt;font style=&quot;border-color: var(--border-color); font-size: 12px;&quot;&gt;LAN4&lt;/font&gt;&lt;/b&gt;" style="text;html=1;align=center;verticalAlign=middle;resizable=0;points=[];autosize=1;strokeColor=none;fillColor=none;fontSize=16;fontColor=default;" parent="UjOCbqU0MYQvJ_P7pini-1" vertex="1">
          <mxGeometry x="1032" y="930" width="50" height="30" as="geometry" />
        </mxCell>
        <mxCell id="cOV8eXajMhUzJ5SDVl8M-0" value="Vyos_Reititin3" style="shape=cylinder3;whiteSpace=wrap;html=1;boundedLbl=1;backgroundOutline=1;size=15;fontSize=13;" parent="UjOCbqU0MYQvJ_P7pini-1" vertex="1">
          <mxGeometry x="773.5" y="-95.5" width="110" height="70" as="geometry" />
        </mxCell>
        <mxCell id="cOV8eXajMhUzJ5SDVl8M-1" value="" style="endArrow=classic;html=1;rounded=0;fontSize=13;" parent="UjOCbqU0MYQvJ_P7pini-1" edge="1">
          <mxGeometry width="50" height="50" relative="1" as="geometry">
            <mxPoint x="838.5" y="-81.5" as="sourcePoint" />
            <mxPoint x="878.5" y="-81.5" as="targetPoint" />
          </mxGeometry>
        </mxCell>
        <mxCell id="cOV8eXajMhUzJ5SDVl8M-2" value="" style="endArrow=classic;html=1;rounded=0;fontSize=13;" parent="UjOCbqU0MYQvJ_P7pini-1" edge="1">
          <mxGeometry width="50" height="50" relative="1" as="geometry">
            <mxPoint x="817.5" y="-81.5" as="sourcePoint" />
            <mxPoint x="777.5" y="-81.5" as="targetPoint" />
          </mxGeometry>
        </mxCell>
        <mxCell id="cOV8eXajMhUzJ5SDVl8M-3" value="" style="endArrow=classic;html=1;rounded=0;fontSize=13;" parent="UjOCbqU0MYQvJ_P7pini-1" edge="1">
          <mxGeometry width="50" height="50" relative="1" as="geometry">
            <mxPoint x="828.5" y="-95.5" as="sourcePoint" />
            <mxPoint x="828.3299999999999" y="-85.5" as="targetPoint" />
          </mxGeometry>
        </mxCell>
        <mxCell id="cOV8eXajMhUzJ5SDVl8M-4" value="" style="endArrow=classic;html=1;rounded=0;fontSize=13;" parent="UjOCbqU0MYQvJ_P7pini-1" edge="1">
          <mxGeometry width="50" height="50" relative="1" as="geometry">
            <mxPoint x="828.5700000000002" y="-70.5" as="sourcePoint" />
            <mxPoint x="828.4000000000001" y="-80.5" as="targetPoint" />
            <Array as="points">
              <mxPoint x="828.5" y="-65.5" />
            </Array>
          </mxGeometry>
        </mxCell>
        <mxCell id="cOV8eXajMhUzJ5SDVl8M-6" value="" style="endArrow=none;html=1;rounded=0;strokeWidth=3;fontSize=13;fontColor=#FF3333;entryX=0.073;entryY=0.921;entryDx=0;entryDy=0;entryPerimeter=0;strokeColor=#ff80c0;" parent="UjOCbqU0MYQvJ_P7pini-1" target="cOV8eXajMhUzJ5SDVl8M-0" edge="1">
          <mxGeometry width="50" height="50" relative="1" as="geometry">
            <mxPoint x="780" y="160" as="sourcePoint" />
            <mxPoint x="862" y="-40" as="targetPoint" />
          </mxGeometry>
        </mxCell>
        <mxCell id="cOV8eXajMhUzJ5SDVl8M-7" value="" style="endArrow=none;html=1;rounded=0;strokeWidth=3;fontSize=13;fontColor=#FF3333;entryX=0.855;entryY=1;entryDx=0;entryDy=-4.35;entryPerimeter=0;exitX=0.5;exitY=0;exitDx=0;exitDy=0;exitPerimeter=0;strokeColor=#8000ff;" parent="UjOCbqU0MYQvJ_P7pini-1" source="UjOCbqU0MYQvJ_P7pini-8" target="cOV8eXajMhUzJ5SDVl8M-0" edge="1">
          <mxGeometry width="50" height="50" relative="1" as="geometry">
            <mxPoint x="1040" y="150" as="sourcePoint" />
            <mxPoint x="1171.5" y="-106" as="targetPoint" />
          </mxGeometry>
        </mxCell>
        <mxCell id="cOV8eXajMhUzJ5SDVl8M-8" value="&lt;font style=&quot;font-size: 13px;&quot;&gt;vlan&lt;br&gt;RtoR2&lt;/font&gt;" style="line;strokeWidth=4;html=1;perimeter=backbonePerimeter;points=[];outlineConnect=0;labelBackgroundColor=default;labelBorderColor=none;fontSize=16;strokeColor=#ff80c0;horizontal=1;verticalAlign=middle;fillColor=#647687;fontColor=#000000;" parent="UjOCbqU0MYQvJ_P7pini-1" vertex="1">
          <mxGeometry x="148.5" y="-42.750000000000064" width="230" height="10" as="geometry" />
        </mxCell>
        <mxCell id="cOV8eXajMhUzJ5SDVl8M-9" value="" style="endArrow=none;html=1;rounded=0;strokeWidth=3;fontSize=16;fontColor=#000000;startSize=8;endSize=11;jumpSize=10;fillColor=#647687;strokeColor=#ff80c0;" parent="UjOCbqU0MYQvJ_P7pini-1" edge="1">
          <mxGeometry width="50" height="50" relative="1" as="geometry">
            <mxPoint x="394.5" y="-38.750000000000064" as="sourcePoint" />
            <mxPoint x="620.5" y="-38.750000000000064" as="targetPoint" />
          </mxGeometry>
        </mxCell>
        <mxCell id="cOV8eXajMhUzJ5SDVl8M-10" value="untagged" style="edgeLabel;html=1;align=center;verticalAlign=middle;resizable=0;points=[];fontSize=16;fontColor=default;" parent="cOV8eXajMhUzJ5SDVl8M-9" vertex="1" connectable="0">
          <mxGeometry x="-0.2124" relative="1" as="geometry">
            <mxPoint x="17" as="offset" />
          </mxGeometry>
        </mxCell>
        <mxCell id="cOV8eXajMhUzJ5SDVl8M-11" value="" style="endArrow=none;html=1;rounded=0;strokeWidth=3;fontSize=16;fontColor=#000000;startSize=8;endSize=11;jumpSize=10;fillColor=#647687;strokeColor=#ff80c0;dashed=1;" parent="UjOCbqU0MYQvJ_P7pini-1" edge="1">
          <mxGeometry width="50" height="50" relative="1" as="geometry">
            <mxPoint x="394.5" y="-18.750000000000064" as="sourcePoint" />
            <mxPoint x="620.5" y="-18.750000000000064" as="targetPoint" />
          </mxGeometry>
        </mxCell>
        <mxCell id="cOV8eXajMhUzJ5SDVl8M-12" value="tagged" style="edgeLabel;html=1;align=center;verticalAlign=middle;resizable=0;points=[];fontSize=16;fontColor=default;" parent="cOV8eXajMhUzJ5SDVl8M-11" vertex="1" connectable="0">
          <mxGeometry x="0.2212" y="1" relative="1" as="geometry">
            <mxPoint x="-32" y="1" as="offset" />
          </mxGeometry>
        </mxCell>
        <mxCell id="cOV8eXajMhUzJ5SDVl8M-13" value="&lt;font style=&quot;font-size: 13px;&quot;&gt;vlan&lt;br&gt;RtoR3&lt;/font&gt;" style="line;strokeWidth=4;html=1;perimeter=backbonePerimeter;points=[];outlineConnect=0;labelBackgroundColor=default;labelBorderColor=none;fontSize=16;strokeColor=#8000ff;horizontal=1;verticalAlign=middle;fillColor=#647687;fontColor=#000000;" parent="UjOCbqU0MYQvJ_P7pini-1" vertex="1">
          <mxGeometry x="148.5" y="8.499999999999936" width="230" height="10" as="geometry" />
        </mxCell>
        <mxCell id="cOV8eXajMhUzJ5SDVl8M-14" value="" style="endArrow=none;html=1;rounded=0;strokeWidth=3;fontSize=16;fontColor=#000000;startSize=8;endSize=11;jumpSize=10;fillColor=#647687;strokeColor=#8000ff;" parent="UjOCbqU0MYQvJ_P7pini-1" edge="1">
          <mxGeometry width="50" height="50" relative="1" as="geometry">
            <mxPoint x="394.5" y="12.499999999999936" as="sourcePoint" />
            <mxPoint x="620.5" y="12.499999999999936" as="targetPoint" />
          </mxGeometry>
        </mxCell>
        <mxCell id="cOV8eXajMhUzJ5SDVl8M-15" value="untagged" style="edgeLabel;html=1;align=center;verticalAlign=middle;resizable=0;points=[];fontSize=16;fontColor=default;" parent="cOV8eXajMhUzJ5SDVl8M-14" vertex="1" connectable="0">
          <mxGeometry x="-0.2124" relative="1" as="geometry">
            <mxPoint x="17" as="offset" />
          </mxGeometry>
        </mxCell>
        <mxCell id="cOV8eXajMhUzJ5SDVl8M-16" value="" style="endArrow=none;html=1;rounded=0;strokeWidth=3;fontSize=16;fontColor=#000000;startSize=8;endSize=11;jumpSize=10;fillColor=#647687;strokeColor=#8000ff;dashed=1;" parent="UjOCbqU0MYQvJ_P7pini-1" edge="1">
          <mxGeometry width="50" height="50" relative="1" as="geometry">
            <mxPoint x="394.5" y="32.499999999999936" as="sourcePoint" />
            <mxPoint x="620.5" y="32.499999999999936" as="targetPoint" />
          </mxGeometry>
        </mxCell>
        <mxCell id="cOV8eXajMhUzJ5SDVl8M-17" value="tagged" style="edgeLabel;html=1;align=center;verticalAlign=middle;resizable=0;points=[];fontSize=16;fontColor=default;" parent="cOV8eXajMhUzJ5SDVl8M-16" vertex="1" connectable="0">
          <mxGeometry x="0.2212" y="1" relative="1" as="geometry">
            <mxPoint x="-32" y="1" as="offset" />
          </mxGeometry>
        </mxCell>
        <mxCell id="cOV8eXajMhUzJ5SDVl8M-19" value="eth4" style="rounded=0;whiteSpace=wrap;html=1;labelBackgroundColor=none;fontSize=12;labelBorderColor=none;fillColor=#e1d5e7;strokeColor=#9673a6;" parent="UjOCbqU0MYQvJ_P7pini-1" vertex="1">
          <mxGeometry x="732.5" y="34.5" width="40" height="15.5" as="geometry" />
        </mxCell>
        <mxCell id="cOV8eXajMhUzJ5SDVl8M-22" value="" style="endArrow=none;html=1;rounded=0;strokeColor=#000000;strokeWidth=3;fontSize=13;fontColor=#FF3333;entryX=0.5;entryY=1;entryDx=0;entryDy=0;entryPerimeter=0;" parent="UjOCbqU0MYQvJ_P7pini-1" target="q_FQPXTyiczj2LY2fRJq-0" edge="1">
          <mxGeometry width="50" height="50" relative="1" as="geometry">
            <mxPoint x="776" y="270" as="sourcePoint" />
            <mxPoint x="606.5" y="322" as="targetPoint" />
          </mxGeometry>
        </mxCell>
        <mxCell id="cOV8eXajMhUzJ5SDVl8M-23" value="" style="endArrow=none;html=1;rounded=0;strokeColor=#000000;strokeWidth=3;fontSize=13;fontColor=#FF3333;entryX=0.5;entryY=1;entryDx=0;entryDy=0;entryPerimeter=0;" parent="UjOCbqU0MYQvJ_P7pini-1" edge="1">
          <mxGeometry width="50" height="50" relative="1" as="geometry">
            <mxPoint x="790" y="270" as="sourcePoint" />
            <mxPoint x="762" y="270" as="targetPoint" />
          </mxGeometry>
        </mxCell>
        <mxCell id="cOV8eXajMhUzJ5SDVl8M-24" value="" style="endArrow=none;html=1;rounded=0;strokeColor=#000000;strokeWidth=3;fontSize=13;fontColor=#FF3333;entryX=0.5;entryY=1;entryDx=0;entryDy=0;entryPerimeter=0;" parent="UjOCbqU0MYQvJ_P7pini-1" edge="1">
          <mxGeometry width="50" height="50" relative="1" as="geometry">
            <mxPoint x="790" y="270" as="sourcePoint" />
            <mxPoint x="762" y="270" as="targetPoint" />
          </mxGeometry>
        </mxCell>
        <mxCell id="cOV8eXajMhUzJ5SDVl8M-25" value="" style="endArrow=none;html=1;rounded=0;strokeColor=#000000;strokeWidth=3;fontSize=13;fontColor=#FF3333;entryX=0.5;entryY=1;entryDx=0;entryDy=0;entryPerimeter=0;" parent="UjOCbqU0MYQvJ_P7pini-1" edge="1">
          <mxGeometry width="50" height="50" relative="1" as="geometry">
            <mxPoint x="1150" y="215" as="sourcePoint" />
            <mxPoint x="1150" y="175" as="targetPoint" />
          </mxGeometry>
        </mxCell>
        <mxCell id="cOV8eXajMhUzJ5SDVl8M-26" value="" style="endArrow=none;html=1;rounded=0;strokeColor=#000000;strokeWidth=3;fontSize=13;fontColor=#FF3333;entryX=0.986;entryY=0.564;entryDx=0;entryDy=0;entryPerimeter=0;" parent="UjOCbqU0MYQvJ_P7pini-1" edge="1">
          <mxGeometry width="50" height="50" relative="1" as="geometry">
            <mxPoint x="1151.26" y="198" as="sourcePoint" />
            <mxPoint x="1114.22" y="197.98000000000002" as="targetPoint" />
          </mxGeometry>
        </mxCell>
        <mxCell id="cOV8eXajMhUzJ5SDVl8M-27" value="" style="endArrow=none;html=1;rounded=0;strokeColor=#CCCC00;strokeWidth=3;fontSize=13;fontColor=#FF3333;" parent="UjOCbqU0MYQvJ_P7pini-1" target="0F5LGeyx37ZaKex19TJU-14" edge="1">
          <mxGeometry width="50" height="50" relative="1" as="geometry">
            <mxPoint x="828.24" y="-95.5" as="sourcePoint" />
            <mxPoint x="828.5" y="-185.5" as="targetPoint" />
          </mxGeometry>
        </mxCell>
        <mxCell id="AfwfWuU4h1VvjDMX5hDp-0" value="&lt;b style=&quot;border-color: var(--border-color);&quot;&gt;&lt;font style=&quot;border-color: var(--border-color); font-size: 12px;&quot;&gt;LAN5&lt;/font&gt;&lt;/b&gt;" style="text;html=1;align=center;verticalAlign=middle;resizable=0;points=[];autosize=1;strokeColor=none;fillColor=none;fontSize=16;fontColor=default;" parent="UjOCbqU0MYQvJ_P7pini-1" vertex="1">
          <mxGeometry x="606" y="192.74999999999994" width="50" height="30" as="geometry" />
        </mxCell>
        <mxCell id="AfwfWuU4h1VvjDMX5hDp-1" value="&lt;b style=&quot;border-color: var(--border-color);&quot;&gt;&lt;font style=&quot;border-color: var(--border-color); font-size: 12px;&quot;&gt;RtoR&lt;/font&gt;&lt;/b&gt;" style="text;html=1;align=center;verticalAlign=middle;resizable=0;points=[];autosize=1;strokeColor=none;fillColor=none;fontSize=16;fontColor=default;" parent="UjOCbqU0MYQvJ_P7pini-1" vertex="1">
          <mxGeometry x="891" y="192.99999999999994" width="50" height="30" as="geometry" />
        </mxCell>
        <mxCell id="AfwfWuU4h1VvjDMX5hDp-2" value="&lt;b style=&quot;border-color: var(--border-color);&quot;&gt;&lt;font style=&quot;border-color: var(--border-color); font-size: 12px;&quot;&gt;RtoR1&lt;/font&gt;&lt;/b&gt;" style="text;html=1;align=center;verticalAlign=middle;resizable=0;points=[];autosize=1;strokeColor=none;fillColor=none;fontSize=16;fontColor=default;" parent="UjOCbqU0MYQvJ_P7pini-1" vertex="1">
          <mxGeometry x="773.5" y="34.499999999999936" width="60" height="30" as="geometry" />
        </mxCell>
        <mxCell id="AfwfWuU4h1VvjDMX5hDp-3" value="&lt;b style=&quot;border-color: var(--border-color);&quot;&gt;&lt;font style=&quot;border-color: var(--border-color); font-size: 12px;&quot;&gt;RtoR2&lt;/font&gt;&lt;/b&gt;" style="text;html=1;align=center;verticalAlign=middle;resizable=0;points=[];autosize=1;strokeColor=none;fillColor=none;fontSize=16;fontColor=default;" parent="UjOCbqU0MYQvJ_P7pini-1" vertex="1">
          <mxGeometry x="972.5" y="34.499999999999936" width="60" height="30" as="geometry" />
        </mxCell>
        <mxCell id="AfwfWuU4h1VvjDMX5hDp-4" value="eth2" style="rounded=0;whiteSpace=wrap;html=1;labelBackgroundColor=none;fontSize=12;labelBorderColor=none;fillColor=#e1d5e7;strokeColor=#9673a6;" parent="UjOCbqU0MYQvJ_P7pini-1" vertex="1">
          <mxGeometry x="854.5" y="152" width="40" height="17.5" as="geometry" />
        </mxCell>
        <mxCell id="AfwfWuU4h1VvjDMX5hDp-5" value="08002755A51A" style="text;html=1;align=center;verticalAlign=middle;resizable=0;points=[];autosize=1;strokeColor=#82b366;fillColor=#d5e8d4;fontSize=12;" parent="UjOCbqU0MYQvJ_P7pini-1" vertex="1">
          <mxGeometry x="784.5" y="119.03999999999999" width="110" height="30" as="geometry" />
        </mxCell>
        <mxCell id="AfwfWuU4h1VvjDMX5hDp-6" value="Adapter3" style="text;html=1;align=center;verticalAlign=middle;resizable=0;points=[];autosize=1;strokeColor=none;fillColor=none;fontSize=13;" parent="UjOCbqU0MYQvJ_P7pini-1" vertex="1">
          <mxGeometry x="823" y="167" width="80" height="30" as="geometry" />
        </mxCell>
        <mxCell id="AfwfWuU4h1VvjDMX5hDp-7" value="Adapter1" style="text;html=1;align=center;verticalAlign=middle;resizable=0;points=[];autosize=1;strokeColor=none;fillColor=none;fontSize=13;" parent="UjOCbqU0MYQvJ_P7pini-1" vertex="1">
          <mxGeometry x="706.5" y="-25.50000000000003" width="80" height="30" as="geometry" />
        </mxCell>
        <mxCell id="AfwfWuU4h1VvjDMX5hDp-8" value="080027A56EA5" style="text;html=1;align=center;verticalAlign=middle;resizable=0;points=[];autosize=1;strokeColor=#82b366;fillColor=#d5e8d4;fontSize=12;" parent="UjOCbqU0MYQvJ_P7pini-1" vertex="1">
          <mxGeometry x="662.5" y="4.5" width="110" height="30" as="geometry" />
        </mxCell>
        <mxCell id="AfwfWuU4h1VvjDMX5hDp-10" value="eth3" style="rounded=0;whiteSpace=wrap;html=1;labelBackgroundColor=none;fontSize=12;labelBorderColor=none;fillColor=#e1d5e7;strokeColor=#9673a6;" parent="UjOCbqU0MYQvJ_P7pini-1" vertex="1">
          <mxGeometry x="900.5" y="-41" width="40" height="15.5" as="geometry" />
        </mxCell>
        <mxCell id="AfwfWuU4h1VvjDMX5hDp-11" value="080027103120" style="text;html=1;align=center;verticalAlign=middle;resizable=0;points=[];autosize=1;strokeColor=#82b366;fillColor=#d5e8d4;fontSize=12;" parent="UjOCbqU0MYQvJ_P7pini-1" vertex="1">
          <mxGeometry x="902" y="-71" width="100" height="30" as="geometry" />
        </mxCell>
        <mxCell id="AfwfWuU4h1VvjDMX5hDp-15" value="Adapter2" style="text;html=1;align=center;verticalAlign=middle;resizable=0;points=[];autosize=1;strokeColor=none;fillColor=none;fontSize=13;" parent="UjOCbqU0MYQvJ_P7pini-1" vertex="1">
          <mxGeometry x="885" y="-25.50000000000003" width="80" height="30" as="geometry" />
        </mxCell>
        <mxCell id="AfwfWuU4h1VvjDMX5hDp-17" value="eth2" style="rounded=0;whiteSpace=wrap;html=1;labelBackgroundColor=none;fontSize=12;labelBorderColor=none;fillColor=#e1d5e7;strokeColor=#9673a6;" parent="UjOCbqU0MYQvJ_P7pini-1" vertex="1">
          <mxGeometry x="1063" y="96.25" width="40" height="17.5" as="geometry" />
        </mxCell>
        <mxCell id="AfwfWuU4h1VvjDMX5hDp-18" value="0800277DC44A" style="text;html=1;align=center;verticalAlign=middle;resizable=0;points=[];autosize=1;strokeColor=#82b366;fillColor=#d5e8d4;fontSize=12;" parent="UjOCbqU0MYQvJ_P7pini-1" vertex="1">
          <mxGeometry x="1062.5" y="113.75" width="110" height="30" as="geometry" />
        </mxCell>
        <mxCell id="AfwfWuU4h1VvjDMX5hDp-19" value="Adapter3" style="text;html=1;align=center;verticalAlign=middle;resizable=0;points=[];autosize=1;strokeColor=none;fillColor=none;fontSize=13;" parent="UjOCbqU0MYQvJ_P7pini-1" vertex="1">
          <mxGeometry x="1092" y="90" width="80" height="30" as="geometry" />
        </mxCell>
        <mxCell id="2r9t_hrKKRXm7-g-wA9--0" value="lo loopback" style="text;html=1;align=center;verticalAlign=middle;resizable=0;points=[];autosize=1;strokeColor=none;fillColor=none;fontSize=13;fontColor=#FF3333;" parent="UjOCbqU0MYQvJ_P7pini-1" vertex="1">
          <mxGeometry x="1151" y="181.54" width="90" height="30" as="geometry" />
        </mxCell>
        <mxCell id="2r9t_hrKKRXm7-g-wA9--1" value="lo loopback" style="text;html=1;align=center;verticalAlign=middle;resizable=0;points=[];autosize=1;strokeColor=none;fillColor=none;fontSize=13;fontColor=#FF3333;" parent="UjOCbqU0MYQvJ_P7pini-1" vertex="1">
          <mxGeometry x="727" y="272.95" width="90" height="30" as="geometry" />
        </mxCell>
        <mxCell id="po7zqzdCUpLO99-9WfIE-4" value="" style="aspect=fixed;perimeter=ellipsePerimeter;html=1;align=center;shadow=0;dashed=0;spacingTop=3;image;image=img/lib/active_directory/firewall.svg;" parent="UjOCbqU0MYQvJ_P7pini-1" vertex="1">
          <mxGeometry x="833.5" y="-155.75" width="70" height="114.75" as="geometry" />
        </mxCell>
        <mxCell id="0F5LGeyx37ZaKex19TJU-0" value="&lt;font style=&quot;font-size: 13px;&quot;&gt;vlan &lt;br&gt;public_network&lt;br&gt;&lt;/font&gt;" style="line;strokeWidth=4;html=1;perimeter=backbonePerimeter;points=[];outlineConnect=0;labelBackgroundColor=default;labelBorderColor=none;fontSize=16;strokeColor=#CCCC00;horizontal=1;verticalAlign=middle;fillColor=#f0a30a;fontColor=#000000;" parent="UjOCbqU0MYQvJ_P7pini-1" vertex="1">
          <mxGeometry x="148.5" y="-124.57000000000005" width="230" height="10" as="geometry" />
        </mxCell>
        <mxCell id="0F5LGeyx37ZaKex19TJU-1" value="" style="endArrow=none;html=1;rounded=0;strokeWidth=3;fontSize=16;fontColor=#000000;startSize=8;endSize=11;jumpSize=10;fillColor=#f0a30a;strokeColor=#CCCC00;" parent="UjOCbqU0MYQvJ_P7pini-1" edge="1">
          <mxGeometry width="50" height="50" relative="1" as="geometry">
            <mxPoint x="394.5" y="-120.57" as="sourcePoint" />
            <mxPoint x="620.5" y="-120.57" as="targetPoint" />
          </mxGeometry>
        </mxCell>
        <mxCell id="0F5LGeyx37ZaKex19TJU-2" value="untagged" style="edgeLabel;html=1;align=center;verticalAlign=middle;resizable=0;points=[];fontSize=16;fontColor=default;" parent="0F5LGeyx37ZaKex19TJU-1" vertex="1" connectable="0">
          <mxGeometry x="-0.2124" relative="1" as="geometry">
            <mxPoint x="17" as="offset" />
          </mxGeometry>
        </mxCell>
        <mxCell id="0F5LGeyx37ZaKex19TJU-3" value="" style="endArrow=none;html=1;rounded=0;strokeWidth=3;fontSize=16;fontColor=#000000;startSize=8;endSize=11;jumpSize=10;fillColor=#f0a30a;strokeColor=#CCCC00;dashed=1;" parent="UjOCbqU0MYQvJ_P7pini-1" edge="1">
          <mxGeometry width="50" height="50" relative="1" as="geometry">
            <mxPoint x="394.5" y="-100.57" as="sourcePoint" />
            <mxPoint x="620.5" y="-100.57" as="targetPoint" />
          </mxGeometry>
        </mxCell>
        <mxCell id="0F5LGeyx37ZaKex19TJU-4" value="tagged" style="edgeLabel;html=1;align=center;verticalAlign=middle;resizable=0;points=[];fontSize=16;fontColor=default;" parent="0F5LGeyx37ZaKex19TJU-3" vertex="1" connectable="0">
          <mxGeometry x="0.2212" y="1" relative="1" as="geometry">
            <mxPoint x="-32" y="1" as="offset" />
          </mxGeometry>
        </mxCell>
        <mxCell id="0F5LGeyx37ZaKex19TJU-8" value="" style="endArrow=none;html=1;rounded=0;strokeColor=#000000;strokeWidth=3;fontSize=13;fontColor=#FF3333;entryX=0.5;entryY=1;entryDx=0;entryDy=0;entryPerimeter=0;" parent="UjOCbqU0MYQvJ_P7pini-1" edge="1">
          <mxGeometry width="50" height="50" relative="1" as="geometry">
            <mxPoint x="736.16" y="-36" as="sourcePoint" />
            <mxPoint x="736.16" y="-76" as="targetPoint" />
          </mxGeometry>
        </mxCell>
        <mxCell id="0F5LGeyx37ZaKex19TJU-9" value="" style="endArrow=none;html=1;rounded=0;strokeColor=#000000;strokeWidth=3;fontSize=13;fontColor=#FF3333;entryX=0.986;entryY=0.564;entryDx=0;entryDy=0;entryPerimeter=0;" parent="UjOCbqU0MYQvJ_P7pini-1" edge="1">
          <mxGeometry width="50" height="50" relative="1" as="geometry">
            <mxPoint x="772.5" y="-56.47999999999999" as="sourcePoint" />
            <mxPoint x="735.46" y="-56.49999999999997" as="targetPoint" />
          </mxGeometry>
        </mxCell>
        <mxCell id="0F5LGeyx37ZaKex19TJU-10" value="lo loopback" style="text;html=1;align=center;verticalAlign=middle;resizable=0;points=[];autosize=1;strokeColor=none;fillColor=none;fontSize=13;fontColor=#FF3333;" parent="UjOCbqU0MYQvJ_P7pini-1" vertex="1">
          <mxGeometry x="647.5" y="-71" width="90" height="30" as="geometry" />
        </mxCell>
        <mxCell id="0F5LGeyx37ZaKex19TJU-11" value="eth2" style="rounded=0;whiteSpace=wrap;html=1;labelBackgroundColor=none;fontSize=12;labelBorderColor=none;fillColor=#e1d5e7;strokeColor=#9673a6;" parent="UjOCbqU0MYQvJ_P7pini-1" vertex="1">
          <mxGeometry x="777.5" y="-152" width="40" height="15.5" as="geometry" />
        </mxCell>
        <mxCell id="0F5LGeyx37ZaKex19TJU-12" value="Adapter3" style="text;html=1;align=center;verticalAlign=middle;resizable=0;points=[];autosize=1;strokeColor=none;fillColor=none;fontSize=13;" parent="UjOCbqU0MYQvJ_P7pini-1" vertex="1">
          <mxGeometry x="706.5" y="-160.50000000000003" width="80" height="30" as="geometry" />
        </mxCell>
        <mxCell id="0F5LGeyx37ZaKex19TJU-13" value="080027DD80C0" style="text;html=1;align=center;verticalAlign=middle;resizable=0;points=[];autosize=1;strokeColor=#82b366;fillColor=#d5e8d4;fontSize=12;" parent="UjOCbqU0MYQvJ_P7pini-1" vertex="1">
          <mxGeometry x="707.5" y="-135.5" width="110" height="30" as="geometry" />
        </mxCell>
        <mxCell id="0F5LGeyx37ZaKex19TJU-14" value="Lubuntu-tietoverkot4" style="fontColor=#0066CC;verticalAlign=top;verticalLabelPosition=bottom;labelPosition=center;align=center;html=1;outlineConnect=0;fillColor=#CCCCCC;strokeColor=#6881B3;gradientColor=none;gradientDirection=north;strokeWidth=2;shape=mxgraph.networks.pc;fontSize=17;" parent="UjOCbqU0MYQvJ_P7pini-1" vertex="1">
          <mxGeometry x="758.5" y="-405.5" width="140" height="90" as="geometry" />
        </mxCell>
        <mxCell id="0F5LGeyx37ZaKex19TJU-15" value="Adapter1" style="text;html=1;align=center;verticalAlign=middle;resizable=0;points=[];autosize=1;strokeColor=none;fillColor=none;fontSize=12;" parent="UjOCbqU0MYQvJ_P7pini-1" vertex="1">
          <mxGeometry x="752.5" y="-256.5" width="70" height="30" as="geometry" />
        </mxCell>
        <mxCell id="0F5LGeyx37ZaKex19TJU-16" value="0800275653B1" style="text;html=1;align=center;verticalAlign=middle;resizable=0;points=[];autosize=1;strokeColor=#82b366;fillColor=#d5e8d4;fontSize=12;" parent="UjOCbqU0MYQvJ_P7pini-1" vertex="1">
          <mxGeometry x="717.5" y="-286.5" width="100" height="30" as="geometry" />
        </mxCell>
      </root>
    </mxGraphModel>
  </diagram>
  <diagram id="d3AgPCq4oxfpTXh0LBXQ" name="LOOGINEN TOPOLOGIA">
    <mxGraphModel dx="2265" dy="1996" grid="1" gridSize="10" guides="1" tooltips="1" connect="1" arrows="1" fold="1" page="1" pageScale="1" pageWidth="827" pageHeight="1169" math="0" shadow="0">
      <root>
        <mxCell id="0" />
        <mxCell id="1" parent="0" />
        <mxCell id="XKrY1Dd0StBeMhJMGAU--5" value="" style="endArrow=none;html=1;rounded=0;fillColor=#60a917;strokeColor=#2D7600;strokeWidth=4;entryX=0.145;entryY=1;entryDx=0;entryDy=-4.35;entryPerimeter=0;exitX=0.625;exitY=0.2;exitDx=0;exitDy=0;exitPerimeter=0;" parent="1" source="6RZLeZMRrLHsFmqJ9KR6-3" target="wVkSLjS93j-kQLzuNtgP-1" edge="1">
          <mxGeometry width="50" height="50" relative="1" as="geometry">
            <mxPoint x="370" y="390.35" as="sourcePoint" />
            <mxPoint x="554.6999999999998" y="219.99999999999986" as="targetPoint" />
          </mxGeometry>
        </mxCell>
        <mxCell id="qOEN0o3CLJGBxzroA45G-1" value="&lt;font style=&quot;font-size: 17px;&quot;&gt;&lt;b&gt;Looginen Topologia E16 - Anni OrilÃ¤hde AC8081&lt;/b&gt;&lt;/font&gt;" style="text;html=1;align=center;verticalAlign=middle;resizable=0;points=[];autosize=1;strokeColor=none;fillColor=none;" parent="1" vertex="1">
          <mxGeometry x="-10" y="-365" width="410" height="30" as="geometry" />
        </mxCell>
        <mxCell id="4jbgd_YbkrL2SXGQz6LR-1" value="&quot;MitÃ¤ IPv4 aliverkkoja on missÃ¤kin VLANISSA ja mitÃ¤ IP osotteita kÃ¤ytetÃ¤Ã¤n/on kÃ¤ytÃ¶ssÃ¤??&quot;" style="text;html=1;align=center;verticalAlign=middle;resizable=0;points=[];autosize=1;strokeColor=none;fillColor=none;" parent="1" vertex="1">
          <mxGeometry x="-68" y="-335" width="510" height="30" as="geometry" />
        </mxCell>
        <mxCell id="dFQ07iHhQ8FR4DJyaQIZ-1" value="&lt;font style=&quot;font-size: 13px;&quot;&gt;Switch&lt;/font&gt;" style="html=1;whiteSpace=wrap;shape=isoCube2;backgroundOutline=1;isoAngle=15;fontSize=17;" parent="1" vertex="1">
          <mxGeometry x="-151" y="200" width="150" height="90" as="geometry" />
        </mxCell>
        <mxCell id="dFQ07iHhQ8FR4DJyaQIZ-2" value="&lt;font style=&quot;font-size: 13px;&quot;&gt;Switch2&lt;/font&gt;" style="html=1;whiteSpace=wrap;shape=isoCube2;backgroundOutline=1;isoAngle=15;fontSize=17;" parent="1" vertex="1">
          <mxGeometry x="-151" y="300" width="150" height="90" as="geometry" />
        </mxCell>
        <mxCell id="6RZLeZMRrLHsFmqJ9KR6-1" value="Lubuntu-tietoverkot" style="fontColor=#0066CC;verticalAlign=top;verticalLabelPosition=bottom;labelPosition=center;align=center;html=1;outlineConnect=0;fillColor=#CCCCCC;strokeColor=#6881B3;gradientColor=none;gradientDirection=north;strokeWidth=2;shape=mxgraph.networks.pc;fontSize=17;" parent="1" vertex="1">
          <mxGeometry x="116.75" y="455" width="140" height="90" as="geometry" />
        </mxCell>
        <mxCell id="6RZLeZMRrLHsFmqJ9KR6-2" value="Lubuntu-tietoverkot2" style="fontColor=#0066CC;verticalAlign=top;verticalLabelPosition=bottom;labelPosition=center;align=center;html=1;outlineConnect=0;fillColor=#CCCCCC;strokeColor=#6881B3;gradientColor=none;gradientDirection=north;strokeWidth=2;shape=mxgraph.networks.pc;fontSize=17;" parent="1" vertex="1">
          <mxGeometry x="590" y="568" width="140" height="90" as="geometry" />
        </mxCell>
        <mxCell id="6RZLeZMRrLHsFmqJ9KR6-3" value="LAN workstations (tag 5)&lt;br&gt;192.168.68.0/26&lt;br&gt;2001:2205:268:5::/64" style="ellipse;shape=cloud;whiteSpace=wrap;html=1;fillColor=#60a917;strokeColor=#2D7600;fontColor=#ffffff;" parent="1" vertex="1">
          <mxGeometry x="280" y="300" width="210" height="103.7" as="geometry" />
        </mxCell>
        <mxCell id="XyOcusT0b2KkOtB0sLID-1" value=".2&lt;br&gt;:1" style="text;html=1;align=center;verticalAlign=middle;resizable=0;points=[];autosize=1;strokeColor=#2D7600;fillColor=#60a917;fontSize=12;fontColor=#ffffff;" parent="1" vertex="1">
          <mxGeometry x="187" y="475" width="30" height="40" as="geometry" />
        </mxCell>
        <mxCell id="XyOcusT0b2KkOtB0sLID-2" value=".65&lt;br&gt;:1" style="text;html=1;align=center;verticalAlign=middle;resizable=0;points=[];autosize=1;strokeColor=#006EAF;fillColor=#1ba1e2;fontSize=12;fontColor=#ffffff;" parent="1" vertex="1">
          <mxGeometry x="653" y="583" width="40" height="40" as="geometry" />
        </mxCell>
        <mxCell id="uNEbzoOmQvxBbyskoTXC-1" value=".225&lt;br&gt;:2" style="text;html=1;align=center;verticalAlign=middle;resizable=0;points=[];autosize=1;strokeColor=#B20000;fillColor=#e51400;fontSize=12;fontColor=#ffffff;" parent="1" vertex="1">
          <mxGeometry x="-60" y="196" width="50" height="40" as="geometry" />
        </mxCell>
        <mxCell id="uNEbzoOmQvxBbyskoTXC-3" value=".226&lt;br&gt;:3" style="text;html=1;align=center;verticalAlign=middle;resizable=0;points=[];autosize=1;strokeColor=#B20000;fillColor=#e51400;fontSize=12;fontColor=#ffffff;" parent="1" vertex="1">
          <mxGeometry x="-60" y="290" width="50" height="40" as="geometry" />
        </mxCell>
        <mxCell id="0dTB08OaZhJk14mSBx5o-1" value="" style="endArrow=none;html=1;rounded=0;entryX=0.186;entryY=0.813;entryDx=0;entryDy=0;entryPerimeter=0;fillColor=#60a917;strokeColor=#2D7600;strokeWidth=4;" parent="1" source="6RZLeZMRrLHsFmqJ9KR6-1" target="6RZLeZMRrLHsFmqJ9KR6-3" edge="1">
          <mxGeometry width="50" height="50" relative="1" as="geometry">
            <mxPoint x="307" y="529.9999999999998" as="sourcePoint" />
            <mxPoint x="379" y="553.7" as="targetPoint" />
          </mxGeometry>
        </mxCell>
        <mxCell id="0dTB08OaZhJk14mSBx5o-2" value="" style="endArrow=none;html=1;rounded=0;fillColor=#e51400;strokeColor=#B20000;strokeWidth=4;exitX=0;exitY=0;exitDx=150;exitDy=36.0118138620174;exitPerimeter=0;entryX=0.31;entryY=0.8;entryDx=0;entryDy=0;entryPerimeter=0;" parent="1" source="dFQ07iHhQ8FR4DJyaQIZ-1" target="0dTB08OaZhJk14mSBx5o-5" edge="1">
          <mxGeometry width="50" height="50" relative="1" as="geometry">
            <mxPoint x="20" y="340.00000000000006" as="sourcePoint" />
            <mxPoint x="90" y="385.04" as="targetPoint" />
          </mxGeometry>
        </mxCell>
        <mxCell id="0dTB08OaZhJk14mSBx5o-4" value="" style="endArrow=none;html=1;rounded=0;fillColor=#1ba1e2;strokeColor=#006EAF;strokeWidth=4;exitX=0;exitY=0;exitDx=0;exitDy=0;exitPerimeter=0;entryX=0.55;entryY=0.95;entryDx=0;entryDy=0;entryPerimeter=0;" parent="1" source="6RZLeZMRrLHsFmqJ9KR6-2" target="0dTB08OaZhJk14mSBx5o-6" edge="1">
          <mxGeometry width="50" height="50" relative="1" as="geometry">
            <mxPoint x="574.97" y="541.03" as="sourcePoint" />
            <mxPoint x="530" y="500" as="targetPoint" />
          </mxGeometry>
        </mxCell>
        <mxCell id="0dTB08OaZhJk14mSBx5o-5" value="LAN network_devices (tag 4090)&lt;br&gt;10.5.52.224/28&lt;br&gt;2001:2205:268:15::/64" style="ellipse;shape=cloud;whiteSpace=wrap;html=1;fillColor=#e51400;strokeColor=#B20000;fontColor=#ffffff;" parent="1" vertex="1">
          <mxGeometry x="115" y="155" width="260" height="80" as="geometry" />
        </mxCell>
        <mxCell id="0dTB08OaZhJk14mSBx5o-6" value="LAN puuhamaa (tag 10)&lt;br&gt;192.168.68.64/26&lt;br&gt;2001:2205:268:25::/64" style="ellipse;shape=cloud;whiteSpace=wrap;html=1;fillColor=#1ba1e2;strokeColor=#006EAF;fontColor=#ffffff;" parent="1" vertex="1">
          <mxGeometry x="473" y="330" width="217" height="100" as="geometry" />
        </mxCell>
        <mxCell id="wVkSLjS93j-kQLzuNtgP-1" value="Vyos_Reititin1" style="shape=cylinder3;whiteSpace=wrap;html=1;boundedLbl=1;backgroundOutline=1;size=15;fontSize=13;" parent="1" vertex="1">
          <mxGeometry x="530" y="150" width="110" height="70" as="geometry" />
        </mxCell>
        <mxCell id="wVkSLjS93j-kQLzuNtgP-2" value="" style="endArrow=none;html=1;rounded=0;fillColor=#fff2cc;strokeColor=#FF0000;strokeWidth=4;exitX=0.912;exitY=0.337;exitDx=0;exitDy=0;exitPerimeter=0;entryX=0;entryY=0.5;entryDx=0;entryDy=0;entryPerimeter=0;" parent="1" source="0dTB08OaZhJk14mSBx5o-5" target="wVkSLjS93j-kQLzuNtgP-1" edge="1">
          <mxGeometry width="50" height="50" relative="1" as="geometry">
            <mxPoint x="284.9000000000002" y="419.98818613798244" as="sourcePoint" />
            <mxPoint x="529.9999999999999" y="209.9999999999999" as="targetPoint" />
          </mxGeometry>
        </mxCell>
        <mxCell id="wVkSLjS93j-kQLzuNtgP-4" value="" style="endArrow=none;html=1;rounded=0;fillColor=#1ba1e2;strokeColor=#006EAF;strokeWidth=4;entryX=0.5;entryY=1;entryDx=0;entryDy=0;entryPerimeter=0;exitX=0.506;exitY=0.119;exitDx=0;exitDy=0;exitPerimeter=0;" parent="1" source="0dTB08OaZhJk14mSBx5o-6" target="wVkSLjS93j-kQLzuNtgP-1" edge="1">
          <mxGeometry width="50" height="50" relative="1" as="geometry">
            <mxPoint x="371.25" y="396" as="sourcePoint" />
            <mxPoint x="555.9500000000003" y="225.64999999999998" as="targetPoint" />
          </mxGeometry>
        </mxCell>
        <mxCell id="wVkSLjS93j-kQLzuNtgP-5" value=".0-.63" style="text;html=1;align=center;verticalAlign=middle;resizable=0;points=[];autosize=1;strokeColor=#2D7600;fillColor=#60a917;fontColor=#ffffff;" parent="1" vertex="1">
          <mxGeometry x="310" y="403.7" width="50" height="30" as="geometry" />
        </mxCell>
        <mxCell id="wVkSLjS93j-kQLzuNtgP-7" value=".64-.127" style="text;html=1;align=center;verticalAlign=middle;resizable=0;points=[];autosize=1;strokeColor=#006EAF;fillColor=#1ba1e2;fontColor=#ffffff;" parent="1" vertex="1">
          <mxGeometry x="600" y="435" width="70" height="30" as="geometry" />
        </mxCell>
        <mxCell id="wVkSLjS93j-kQLzuNtgP-8" value=".225-.238" style="text;html=1;align=center;verticalAlign=middle;resizable=0;points=[];autosize=1;strokeColor=#B20000;fillColor=#e51400;fontColor=#ffffff;" parent="1" vertex="1">
          <mxGeometry x="220" y="240" width="70" height="30" as="geometry" />
        </mxCell>
        <mxCell id="wVkSLjS93j-kQLzuNtgP-9" value=".238&lt;br&gt;:1" style="text;html=1;align=center;verticalAlign=middle;resizable=0;points=[];autosize=1;strokeColor=#B20000;fillColor=#e51400;fontSize=12;fontColor=#ffffff;" parent="1" vertex="1">
          <mxGeometry x="471" y="175" width="50" height="40" as="geometry" />
        </mxCell>
        <mxCell id="wVkSLjS93j-kQLzuNtgP-11" value=".62&lt;br&gt;:2" style="text;html=1;align=center;verticalAlign=middle;resizable=0;points=[];autosize=1;strokeColor=#2D7600;fillColor=#60a917;fontColor=#ffffff;" parent="1" vertex="1">
          <mxGeometry x="510" y="235" width="40" height="40" as="geometry" />
        </mxCell>
        <mxCell id="wVkSLjS93j-kQLzuNtgP-12" value=".126&lt;br&gt;:2" style="text;html=1;align=center;verticalAlign=middle;resizable=0;points=[];autosize=1;strokeColor=#006EAF;fillColor=#1ba1e2;fontColor=#ffffff;" parent="1" vertex="1">
          <mxGeometry x="580" y="235" width="50" height="40" as="geometry" />
        </mxCell>
        <mxCell id="XKrY1Dd0StBeMhJMGAU--4" value="" style="endArrow=none;html=1;rounded=0;fillColor=#e51400;strokeColor=#B20000;strokeWidth=4;exitX=0;exitY=0;exitDx=150;exitDy=36.0118138620174;exitPerimeter=0;entryX=0.334;entryY=0.828;entryDx=0;entryDy=0;entryPerimeter=0;" parent="1" source="dFQ07iHhQ8FR4DJyaQIZ-2" target="0dTB08OaZhJk14mSBx5o-5" edge="1">
          <mxGeometry width="50" height="50" relative="1" as="geometry">
            <mxPoint x="-30" y="443.9881861379829" as="sourcePoint" />
            <mxPoint x="190.60000000000036" y="224" as="targetPoint" />
          </mxGeometry>
        </mxCell>
        <mxCell id="jW9IlhfXGLicn44COYux-1" value="" style="endArrow=none;html=1;rounded=0;entryX=0.025;entryY=0.053;entryDx=0;entryDy=0;entryPerimeter=0;fillColor=#647687;strokeColor=#314354;strokeWidth=2;exitX=1;exitY=0.5;exitDx=0;exitDy=0;exitPerimeter=0;" parent="1" source="jW9IlhfXGLicn44COYux-2" target="wVkSLjS93j-kQLzuNtgP-1" edge="1">
          <mxGeometry width="50" height="50" relative="1" as="geometry">
            <mxPoint x="310" y="30" as="sourcePoint" />
            <mxPoint x="256" y="16.230000000000018" as="targetPoint" />
            <Array as="points" />
          </mxGeometry>
        </mxCell>
        <mxCell id="jW9IlhfXGLicn44COYux-2" value="Vyos_Reititin2" style="shape=cylinder3;whiteSpace=wrap;html=1;boundedLbl=1;backgroundOutline=1;size=15;fontSize=13;" parent="1" vertex="1">
          <mxGeometry x="157" y="-10" width="110" height="70" as="geometry" />
        </mxCell>
        <mxCell id="jW9IlhfXGLicn44COYux-3" value="Lubuntu-tietoverkot3" style="fontColor=#0066CC;verticalAlign=top;verticalLabelPosition=bottom;labelPosition=center;align=center;html=1;outlineConnect=0;fillColor=#CCCCCC;strokeColor=#6881B3;gradientColor=none;gradientDirection=north;strokeWidth=2;shape=mxgraph.networks.pc;fontSize=17;" parent="1" vertex="1">
          <mxGeometry x="-200" y="-140" width="140" height="90" as="geometry" />
        </mxCell>
        <mxCell id="jW9IlhfXGLicn44COYux-7" value="" style="endArrow=none;html=1;rounded=0;fillColor=#f0a30a;strokeColor=#BD7000;strokeWidth=2;entryX=0;entryY=0.5;entryDx=0;entryDy=0;entryPerimeter=0;exitX=1;exitY=0.333;exitDx=0;exitDy=0;exitPerimeter=0;" parent="1" source="jW9IlhfXGLicn44COYux-3" target="jW9IlhfXGLicn44COYux-2" edge="1">
          <mxGeometry width="50" height="50" relative="1" as="geometry">
            <mxPoint x="-20" y="-150" as="sourcePoint" />
            <mxPoint x="140" y="-70" as="targetPoint" />
            <Array as="points" />
          </mxGeometry>
        </mxCell>
        <mxCell id="jW9IlhfXGLicn44COYux-10" value="LAN RtoR&lt;br&gt;10.5.52.252/30&lt;br&gt;2001:2205:268:10::/64" style="ellipse;shape=cloud;whiteSpace=wrap;html=1;fontColor=#ffffff;fillColor=#647687;strokeColor=#314354;" parent="1" vertex="1">
          <mxGeometry x="340" y="30" width="190" height="90" as="geometry" />
        </mxCell>
        <mxCell id="jW9IlhfXGLicn44COYux-11" value="&lt;font color=&quot;#ffffff&quot;&gt;LAN lankamaa&lt;br style=&quot;border-color: var(--border-color);&quot;&gt;192.168.68.128/26&lt;br&gt;2001:2205:268:20::/64&lt;br&gt;&lt;/font&gt;" style="ellipse;shape=cloud;whiteSpace=wrap;html=1;fontColor=#000000;fillColor=#f0a30a;strokeColor=#BD7000;" parent="1" vertex="1">
          <mxGeometry x="-51" y="-80" width="190" height="90" as="geometry" />
        </mxCell>
        <mxCell id="o9wEDQHB4An2o8wc8LMf-1" value="129.&lt;br&gt;:2" style="text;html=1;align=center;verticalAlign=middle;resizable=0;points=[];autosize=1;strokeColor=#BD7000;fillColor=#f0a30a;fontSize=12;fontColor=#ffffff;" parent="1" vertex="1">
          <mxGeometry x="100" y="5" width="50" height="40" as="geometry" />
        </mxCell>
        <mxCell id="o9wEDQHB4An2o8wc8LMf-2" value=".130&lt;br&gt;:1" style="text;html=1;align=center;verticalAlign=middle;resizable=0;points=[];autosize=1;strokeColor=#BD7000;fillColor=#F0A30A;fontSize=12;fontColor=#ffffff;" parent="1" vertex="1">
          <mxGeometry x="-140" y="-125" width="50" height="40" as="geometry" />
        </mxCell>
        <mxCell id="o9wEDQHB4An2o8wc8LMf-3" value=".253&lt;br&gt;:1" style="text;html=1;align=center;verticalAlign=middle;resizable=0;points=[];autosize=1;strokeColor=#314354;fillColor=#647687;fontSize=12;fontColor=#ffffff;" parent="1" vertex="1">
          <mxGeometry x="490" y="115" width="50" height="40" as="geometry" />
        </mxCell>
        <mxCell id="o9wEDQHB4An2o8wc8LMf-4" value=".254&lt;br&gt;:2" style="text;html=1;align=center;verticalAlign=middle;resizable=0;points=[];autosize=1;strokeColor=#314354;fillColor=#647687;fontSize=12;fontColor=#ffffff;" parent="1" vertex="1">
          <mxGeometry x="280" y="25" width="50" height="40" as="geometry" />
        </mxCell>
        <mxCell id="XEJ6HN_avMZ_MUlVo-9o-1" value=".dchp (.1-.50)" style="text;html=1;align=center;verticalAlign=middle;resizable=0;points=[];autosize=1;strokeColor=#2D7600;fillColor=#60a917;fontColor=#ffffff;" parent="1" vertex="1">
          <mxGeometry x="111.75" y="415" width="100" height="30" as="geometry" />
        </mxCell>
        <mxCell id="XEJ6HN_avMZ_MUlVo-9o-2" value=".dchp (.65-.105)" style="text;html=1;align=center;verticalAlign=middle;resizable=0;points=[];autosize=1;strokeColor=#006EAF;fillColor=#1ba1e2;fontColor=#ffffff;" parent="1" vertex="1">
          <mxGeometry x="594" y="530" width="110" height="30" as="geometry" />
        </mxCell>
        <mxCell id="so6_rruoyVrJmzWOqo89-1" value="" style="endArrow=classic;html=1;rounded=0;fontSize=13;" parent="1" edge="1">
          <mxGeometry width="50" height="50" relative="1" as="geometry">
            <mxPoint x="595.5" y="164.0000000000001" as="sourcePoint" />
            <mxPoint x="635.5" y="164.0000000000001" as="targetPoint" />
          </mxGeometry>
        </mxCell>
        <mxCell id="so6_rruoyVrJmzWOqo89-2" value="" style="endArrow=classic;html=1;rounded=0;fontSize=13;" parent="1" edge="1">
          <mxGeometry width="50" height="50" relative="1" as="geometry">
            <mxPoint x="574.5" y="164.0000000000001" as="sourcePoint" />
            <mxPoint x="534.5" y="164.0000000000001" as="targetPoint" />
          </mxGeometry>
        </mxCell>
        <mxCell id="so6_rruoyVrJmzWOqo89-3" value="" style="endArrow=classic;html=1;rounded=0;fontSize=13;" parent="1" edge="1">
          <mxGeometry width="50" height="50" relative="1" as="geometry">
            <mxPoint x="585.5" y="149.9999999999999" as="sourcePoint" />
            <mxPoint x="585.3299999999999" y="159.9999999999999" as="targetPoint" />
          </mxGeometry>
        </mxCell>
        <mxCell id="so6_rruoyVrJmzWOqo89-4" value="" style="endArrow=classic;html=1;rounded=0;fontSize=13;" parent="1" edge="1">
          <mxGeometry width="50" height="50" relative="1" as="geometry">
            <mxPoint x="585.5700000000002" y="174.9999999999999" as="sourcePoint" />
            <mxPoint x="585.4000000000001" y="164.9999999999999" as="targetPoint" />
            <Array as="points">
              <mxPoint x="585.5" y="180" />
            </Array>
          </mxGeometry>
        </mxCell>
        <mxCell id="so6_rruoyVrJmzWOqo89-5" value="" style="endArrow=classic;html=1;rounded=0;fontSize=13;" parent="1" edge="1">
          <mxGeometry width="50" height="50" relative="1" as="geometry">
            <mxPoint x="222.5" y="4" as="sourcePoint" />
            <mxPoint x="262.5" y="4" as="targetPoint" />
          </mxGeometry>
        </mxCell>
        <mxCell id="so6_rruoyVrJmzWOqo89-6" value="" style="endArrow=classic;html=1;rounded=0;fontSize=13;" parent="1" edge="1">
          <mxGeometry width="50" height="50" relative="1" as="geometry">
            <mxPoint x="201.5" y="4" as="sourcePoint" />
            <mxPoint x="161.5" y="4" as="targetPoint" />
          </mxGeometry>
        </mxCell>
        <mxCell id="so6_rruoyVrJmzWOqo89-7" value="" style="endArrow=classic;html=1;rounded=0;fontSize=13;" parent="1" edge="1">
          <mxGeometry width="50" height="50" relative="1" as="geometry">
            <mxPoint x="212.5" y="-10.000000000000227" as="sourcePoint" />
            <mxPoint x="212.32999999999993" y="-2.2737367544323206e-13" as="targetPoint" />
          </mxGeometry>
        </mxCell>
        <mxCell id="so6_rruoyVrJmzWOqo89-8" value="" style="endArrow=classic;html=1;rounded=0;fontSize=13;" parent="1" edge="1">
          <mxGeometry width="50" height="50" relative="1" as="geometry">
            <mxPoint x="212.57000000000016" y="14.999999999999773" as="sourcePoint" />
            <mxPoint x="212.4000000000001" y="4.999999999999773" as="targetPoint" />
            <Array as="points">
              <mxPoint x="212.5" y="20" />
            </Array>
          </mxGeometry>
        </mxCell>
        <mxCell id="dzTCRqafr9IwK5NSCNzm-1" value="&lt;font style=&quot;font-size: 13px;&quot;&gt;Switch3&lt;/font&gt;" style="html=1;whiteSpace=wrap;shape=isoCube2;backgroundOutline=1;isoAngle=15;fontSize=17;" parent="1" vertex="1">
          <mxGeometry x="-151" y="398.7" width="150" height="90" as="geometry" />
        </mxCell>
        <mxCell id="dzTCRqafr9IwK5NSCNzm-2" value=".227&lt;br&gt;:4" style="text;html=1;align=center;verticalAlign=middle;resizable=0;points=[];autosize=1;strokeColor=#B20000;fillColor=#e51400;fontSize=12;fontColor=#ffffff;" parent="1" vertex="1">
          <mxGeometry x="-60" y="390" width="50" height="40" as="geometry" />
        </mxCell>
        <mxCell id="dzTCRqafr9IwK5NSCNzm-3" value="" style="endArrow=none;html=1;rounded=0;fillColor=#e51400;strokeColor=#B20000;strokeWidth=4;exitX=0;exitY=0;exitDx=150;exitDy=36.0118138620174;exitPerimeter=0;entryX=0.352;entryY=0.888;entryDx=0;entryDy=0;entryPerimeter=0;" parent="1" source="dzTCRqafr9IwK5NSCNzm-1" target="0dTB08OaZhJk14mSBx5o-5" edge="1">
          <mxGeometry width="50" height="50" relative="1" as="geometry">
            <mxPoint x="-20" y="453.9881861379829" as="sourcePoint" />
            <mxPoint x="190" y="220" as="targetPoint" />
          </mxGeometry>
        </mxCell>
        <mxCell id="nwI_fM2C2NfgfqdLVBRv-1" value="Vyos_Reititin3" style="shape=cylinder3;whiteSpace=wrap;html=1;boundedLbl=1;backgroundOutline=1;size=15;fontSize=13;" parent="1" vertex="1">
          <mxGeometry x="530" y="-210" width="110" height="70" as="geometry" />
        </mxCell>
        <mxCell id="nwI_fM2C2NfgfqdLVBRv-2" value="" style="endArrow=classic;html=1;rounded=0;fontSize=13;" parent="1" edge="1">
          <mxGeometry width="50" height="50" relative="1" as="geometry">
            <mxPoint x="595.5" y="-195.9999999999999" as="sourcePoint" />
            <mxPoint x="635.5" y="-195.9999999999999" as="targetPoint" />
          </mxGeometry>
        </mxCell>
        <mxCell id="nwI_fM2C2NfgfqdLVBRv-3" value="" style="endArrow=classic;html=1;rounded=0;fontSize=13;" parent="1" edge="1">
          <mxGeometry width="50" height="50" relative="1" as="geometry">
            <mxPoint x="574.5" y="-195.9999999999999" as="sourcePoint" />
            <mxPoint x="534.5" y="-195.9999999999999" as="targetPoint" />
          </mxGeometry>
        </mxCell>
        <mxCell id="nwI_fM2C2NfgfqdLVBRv-4" value="" style="endArrow=classic;html=1;rounded=0;fontSize=13;" parent="1" edge="1">
          <mxGeometry width="50" height="50" relative="1" as="geometry">
            <mxPoint x="585.5" y="-210.0000000000001" as="sourcePoint" />
            <mxPoint x="585.3299999999999" y="-200.0000000000001" as="targetPoint" />
          </mxGeometry>
        </mxCell>
        <mxCell id="nwI_fM2C2NfgfqdLVBRv-5" value="" style="endArrow=classic;html=1;rounded=0;fontSize=13;" parent="1" edge="1">
          <mxGeometry width="50" height="50" relative="1" as="geometry">
            <mxPoint x="585.5700000000002" y="-185.0000000000001" as="sourcePoint" />
            <mxPoint x="585.4000000000001" y="-195.0000000000001" as="targetPoint" />
            <Array as="points">
              <mxPoint x="585.5" y="-180" />
            </Array>
          </mxGeometry>
        </mxCell>
        <mxCell id="CyqrgAlIboGvdnMHmZW_-1" value="" style="endArrow=none;html=1;rounded=0;strokeWidth=3;fontSize=13;fontColor=#FF3333;entryX=0;entryY=0;entryDx=0;entryDy=45;entryPerimeter=0;strokeColor=#ff80c0;exitX=0.5;exitY=0;exitDx=0;exitDy=0;exitPerimeter=0;" parent="1" source="jW9IlhfXGLicn44COYux-2" target="nwI_fM2C2NfgfqdLVBRv-1" edge="1">
          <mxGeometry width="50" height="50" relative="1" as="geometry">
            <mxPoint x="267" as="sourcePoint" />
            <mxPoint x="356" y="-226" as="targetPoint" />
          </mxGeometry>
        </mxCell>
        <mxCell id="RR9Uo1M5Lnpkhw1PAsms-1" value="" style="endArrow=none;html=1;rounded=0;strokeWidth=3;fontSize=13;fontColor=#FF3333;entryX=0.5;entryY=1;entryDx=0;entryDy=0;entryPerimeter=0;exitX=0.5;exitY=0;exitDx=0;exitDy=0;exitPerimeter=0;strokeColor=#8000ff;" parent="1" source="wVkSLjS93j-kQLzuNtgP-1" target="nwI_fM2C2NfgfqdLVBRv-1" edge="1">
          <mxGeometry width="50" height="50" relative="1" as="geometry">
            <mxPoint x="815" y="132" as="sourcePoint" />
            <mxPoint x="710" y="-90" as="targetPoint" />
          </mxGeometry>
        </mxCell>
        <mxCell id="RR9Uo1M5Lnpkhw1PAsms-2" value="LAN RtoR1&lt;br&gt;10.5.52.248/30&lt;br&gt;2001:2205:268:35::/64" style="ellipse;shape=cloud;whiteSpace=wrap;html=1;fontColor=#ffffff;fillColor=#FF66FF;strokeColor=#FF0080;" parent="1" vertex="1">
          <mxGeometry x="342" y="-120" width="190" height="90" as="geometry" />
        </mxCell>
        <mxCell id="RR9Uo1M5Lnpkhw1PAsms-3" value="LAN RtoR2&lt;br&gt;10.5.52.244/30&lt;br&gt;2001:2205:268:30::/64" style="ellipse;shape=cloud;whiteSpace=wrap;html=1;fontColor=#ffffff;fillColor=#B266FF;strokeColor=#7F00FF;" parent="1" vertex="1">
          <mxGeometry x="521" y="-40" width="190" height="90" as="geometry" />
        </mxCell>
        <mxCell id="RR9Uo1M5Lnpkhw1PAsms-4" value=".249&lt;br&gt;:2" style="text;html=1;align=center;verticalAlign=middle;resizable=0;points=[];autosize=1;strokeColor=#FF0080;fillColor=#FF66FF;fontSize=12;fontColor=#ffffff;" parent="1" vertex="1">
          <mxGeometry x="217" y="-60" width="50" height="40" as="geometry" />
        </mxCell>
        <mxCell id="RR9Uo1M5Lnpkhw1PAsms-6" value=".250&lt;br&gt;:1" style="text;html=1;align=center;verticalAlign=middle;resizable=0;points=[];autosize=1;strokeColor=#FF0080;fillColor=#FF66FF;fontSize=12;fontColor=#ffffff;" parent="1" vertex="1">
          <mxGeometry x="470" y="-185" width="50" height="40" as="geometry" />
        </mxCell>
        <mxCell id="RR9Uo1M5Lnpkhw1PAsms-7" value=".245&lt;br&gt;:2" style="text;html=1;align=center;verticalAlign=middle;resizable=0;points=[];autosize=1;strokeColor=#7F00FF;fillColor=#B266FF;fontSize=12;fontColor=#ffffff;" parent="1" vertex="1">
          <mxGeometry x="571.5" y="-135" width="50" height="40" as="geometry" />
        </mxCell>
        <mxCell id="RR9Uo1M5Lnpkhw1PAsms-8" value=".246&lt;br&gt;:1" style="text;html=1;align=center;verticalAlign=middle;resizable=0;points=[];autosize=1;strokeColor=#7F00FF;fillColor=#B266FF;fontSize=12;fontColor=#ffffff;" parent="1" vertex="1">
          <mxGeometry x="580" y="105" width="50" height="40" as="geometry" />
        </mxCell>
        <mxCell id="2giz4dLhGgGvASrqgAds-3" value="" style="endArrow=none;html=1;rounded=0;strokeColor=#000000;strokeWidth=3;fontSize=13;fontColor=#FF3333;entryX=0.5;entryY=1;entryDx=0;entryDy=0;entryPerimeter=0;" parent="1" edge="1">
          <mxGeometry width="50" height="50" relative="1" as="geometry">
            <mxPoint x="670" y="210" as="sourcePoint" />
            <mxPoint x="670" y="170" as="targetPoint" />
          </mxGeometry>
        </mxCell>
        <mxCell id="2giz4dLhGgGvASrqgAds-4" value="" style="endArrow=none;html=1;rounded=0;strokeColor=#000000;strokeWidth=3;fontSize=13;fontColor=#FF3333;entryX=0.5;entryY=1;entryDx=0;entryDy=0;entryPerimeter=0;" parent="1" edge="1">
          <mxGeometry width="50" height="50" relative="1" as="geometry">
            <mxPoint x="668" y="190" as="sourcePoint" />
            <mxPoint x="640" y="190" as="targetPoint" />
          </mxGeometry>
        </mxCell>
        <mxCell id="2giz4dLhGgGvASrqgAds-5" value="" style="endArrow=none;html=1;rounded=0;strokeColor=#000000;strokeWidth=3;fontSize=13;fontColor=#FF3333;entryX=0.5;entryY=1;entryDx=0;entryDy=0;entryPerimeter=0;" parent="1" edge="1">
          <mxGeometry width="50" height="50" relative="1" as="geometry">
            <mxPoint x="211.57999999999998" y="100" as="sourcePoint" />
            <mxPoint x="211.57999999999998" y="60" as="targetPoint" />
          </mxGeometry>
        </mxCell>
        <mxCell id="2giz4dLhGgGvASrqgAds-6" value="" style="endArrow=none;html=1;rounded=0;strokeColor=#000000;strokeWidth=3;fontSize=13;fontColor=#FF3333;entryX=0.5;entryY=1;entryDx=0;entryDy=0;entryPerimeter=0;" parent="1" edge="1">
          <mxGeometry width="50" height="50" relative="1" as="geometry">
            <mxPoint x="226" y="100" as="sourcePoint" />
            <mxPoint x="198" y="100" as="targetPoint" />
          </mxGeometry>
        </mxCell>
        <mxCell id="2giz4dLhGgGvASrqgAds-8" value="10.5.52.241/32&lt;br&gt;2001:2205:268::F1/128" style="rounded=0;whiteSpace=wrap;html=1;strokeColor=#999999;fontSize=10;fontColor=#000000;fillColor=#CCCCCC;" parent="1" vertex="1">
          <mxGeometry x="148.62" y="100" width="126.75" height="40" as="geometry" />
        </mxCell>
        <mxCell id="2giz4dLhGgGvASrqgAds-9" value="10.5.52.240/32&lt;br&gt;2001:2205:268::F0 /128" style="rounded=0;whiteSpace=wrap;html=1;strokeColor=#999999;fontSize=10;fontColor=#000000;fillColor=#CCCCCC;" parent="1" vertex="1">
          <mxGeometry x="670" y="170" width="130.5" height="40" as="geometry" />
        </mxCell>
        <mxCell id="DHXsAKB-SpduVgV7k76Z-1" value="10.5.52.242/32&lt;br&gt;2001:2205:268::F2/128" style="rounded=0;whiteSpace=wrap;html=1;strokeColor=#999999;fontSize=10;fontColor=#000000;fillColor=#CCCCCC;" parent="1" vertex="1">
          <mxGeometry x="670" y="-196.25" width="139" height="42.5" as="geometry" />
        </mxCell>
        <mxCell id="DHXsAKB-SpduVgV7k76Z-4" value="" style="endArrow=none;html=1;rounded=0;strokeColor=#000000;strokeWidth=3;fontSize=13;fontColor=#FF3333;entryX=0.5;entryY=1;entryDx=0;entryDy=0;entryPerimeter=0;" parent="1" edge="1">
          <mxGeometry width="50" height="50" relative="1" as="geometry">
            <mxPoint x="670" y="-160" as="sourcePoint" />
            <mxPoint x="670" y="-193" as="targetPoint" />
          </mxGeometry>
        </mxCell>
        <mxCell id="DHXsAKB-SpduVgV7k76Z-5" value="" style="endArrow=none;html=1;rounded=0;strokeColor=#000000;strokeWidth=3;fontSize=13;fontColor=#FF3333;entryX=0.5;entryY=1;entryDx=0;entryDy=0;entryPerimeter=0;" parent="1" edge="1">
          <mxGeometry width="50" height="50" relative="1" as="geometry">
            <mxPoint x="668" y="-173" as="sourcePoint" />
            <mxPoint x="640" y="-173" as="targetPoint" />
          </mxGeometry>
        </mxCell>
        <mxCell id="kkIyXtomY5bNX2iZvCYr-1" value="" style="endArrow=none;html=1;rounded=0;strokeColor=#CCCC00;strokeWidth=3;fontSize=13;fontColor=#FF3333;" parent="1" edge="1">
          <mxGeometry width="50" height="50" relative="1" as="geometry">
            <mxPoint x="584.41" y="-210" as="sourcePoint" />
            <mxPoint x="584.67" y="-430" as="targetPoint" />
          </mxGeometry>
        </mxCell>
        <mxCell id="kkIyXtomY5bNX2iZvCYr-2" value="Lubuntu-tietoverkot4" style="fontColor=#0066CC;verticalAlign=top;verticalLabelPosition=bottom;labelPosition=center;align=center;html=1;outlineConnect=0;fillColor=#CCCCCC;strokeColor=#6881B3;gradientColor=none;gradientDirection=north;strokeWidth=2;shape=mxgraph.networks.pc;fontSize=17;" parent="1" vertex="1">
          <mxGeometry x="511.5" y="-550" width="140" height="90" as="geometry" />
        </mxCell>
        <mxCell id="kkIyXtomY5bNX2iZvCYr-3" value="public_network&lt;br&gt;15.68.5.0/24&lt;br&gt;2001:2205:268:40::/64" style="ellipse;shape=cloud;whiteSpace=wrap;html=1;fontColor=#000000;fillColor=#CCCC00;strokeColor=#A8A800;" parent="1" vertex="1">
          <mxGeometry x="490" y="-380" width="190" height="90" as="geometry" />
        </mxCell>
        <mxCell id="kkIyXtomY5bNX2iZvCYr-4" value="&lt;font color=&quot;#000000&quot;&gt;.1&lt;br&gt;:1&lt;br&gt;&lt;/font&gt;" style="text;html=1;align=center;verticalAlign=middle;resizable=0;points=[];autosize=1;strokeColor=#A8A800;fillColor=#CCCC00;fontSize=12;fontColor=#ffffff;" parent="1" vertex="1">
          <mxGeometry x="591.5" y="-270" width="30" height="40" as="geometry" />
        </mxCell>
        <mxCell id="kkIyXtomY5bNX2iZvCYr-6" value="&lt;font color=&quot;#000000&quot;&gt;.2&lt;br&gt;:2&lt;br&gt;&lt;/font&gt;" style="text;html=1;align=center;verticalAlign=middle;resizable=0;points=[];autosize=1;strokeColor=#A8A800;fillColor=#CCCC00;fontSize=12;fontColor=#ffffff;" parent="1" vertex="1">
          <mxGeometry x="581.5" y="-535" width="30" height="40" as="geometry" />
        </mxCell>
        <mxCell id="kkIyXtomY5bNX2iZvCYr-7" value=".dchp (.129-.179)" style="text;html=1;align=center;verticalAlign=middle;resizable=0;points=[];autosize=1;strokeColor=#BD7000;fillColor=#F0A30A;fontColor=#ffffff;" parent="1" vertex="1">
          <mxGeometry x="-200" y="-180" width="110" height="30" as="geometry" />
        </mxCell>
        <mxCell id="kkIyXtomY5bNX2iZvCYr-8" value=".128-.191" style="text;html=1;align=center;verticalAlign=middle;resizable=0;points=[];autosize=1;strokeColor=#BD7000;fillColor=#F0A30A;fontColor=#ffffff;" parent="1" vertex="1">
          <mxGeometry x="30" y="-110" width="70" height="30" as="geometry" />
        </mxCell>
        <mxCell id="kkIyXtomY5bNX2iZvCYr-9" value="&lt;font color=&quot;#000000&quot;&gt;.dchp (.2-.100)&lt;br&gt;&lt;/font&gt;" style="text;html=1;align=center;verticalAlign=middle;resizable=0;points=[];autosize=1;strokeColor=#A8A800;fillColor=#CCCC00;fontColor=#ffffff;" parent="1" vertex="1">
          <mxGeometry x="535" y="-599" width="100" height="30" as="geometry" />
        </mxCell>
        <mxCell id="4LgbrTFVAvsGkRNq6QoL-1" value=".248-.251" style="text;html=1;align=center;verticalAlign=middle;resizable=0;points=[];autosize=1;strokeColor=#FF0080;fillColor=#FF66FF;fontColor=#ffffff;" parent="1" vertex="1">
          <mxGeometry x="320" y="-140" width="70" height="30" as="geometry" />
        </mxCell>
        <mxCell id="4LgbrTFVAvsGkRNq6QoL-2" value=".244-.247" style="text;html=1;align=center;verticalAlign=middle;resizable=0;points=[];autosize=1;strokeColor=#7F00FF;fillColor=#B266FF;fontColor=#ffffff;" parent="1" vertex="1">
          <mxGeometry x="710" y="-10" width="70" height="30" as="geometry" />
        </mxCell>
        <mxCell id="4LgbrTFVAvsGkRNq6QoL-3" value=".252-.255" style="text;html=1;align=center;verticalAlign=middle;resizable=0;points=[];autosize=1;strokeColor=#314354;fillColor=#647687;fontSize=12;fontColor=#ffffff;" parent="1" vertex="1">
          <mxGeometry x="340" y="115" width="70" height="30" as="geometry" />
        </mxCell>
      </root>
    </mxGraphModel>
  </diagram>
  <diagram id="k6e5W929hwJ6LJKI0eiV" name="Silmukka">
    <mxGraphModel dx="1577" dy="815" grid="1" gridSize="10" guides="1" tooltips="1" connect="1" arrows="1" fold="1" page="1" pageScale="1" pageWidth="827" pageHeight="1169" math="0" shadow="0">
      <root>
        <mxCell id="0" />
        <mxCell id="1" parent="0" />
        <mxCell id="Vp-uZyiqW1JjBArKR8Tw-1" value="Vyos_Reititin1" style="shape=cylinder3;whiteSpace=wrap;html=1;boundedLbl=1;backgroundOutline=1;size=15;fontSize=13;" parent="1" vertex="1">
          <mxGeometry x="530" y="150" width="110" height="70" as="geometry" />
        </mxCell>
        <mxCell id="HdevCpLUgXE9_d9KvRqk-1" value="" style="endArrow=classic;html=1;rounded=0;fontSize=13;" parent="1" edge="1">
          <mxGeometry width="50" height="50" relative="1" as="geometry">
            <mxPoint x="595.5" y="164.0000000000001" as="sourcePoint" />
            <mxPoint x="635.5" y="164.0000000000001" as="targetPoint" />
          </mxGeometry>
        </mxCell>
        <mxCell id="HdevCpLUgXE9_d9KvRqk-2" value="" style="endArrow=classic;html=1;rounded=0;fontSize=13;" parent="1" edge="1">
          <mxGeometry width="50" height="50" relative="1" as="geometry">
            <mxPoint x="574.5" y="164.0000000000001" as="sourcePoint" />
            <mxPoint x="534.5" y="164.0000000000001" as="targetPoint" />
          </mxGeometry>
        </mxCell>
        <mxCell id="HdevCpLUgXE9_d9KvRqk-3" value="" style="endArrow=classic;html=1;rounded=0;fontSize=13;" parent="1" edge="1">
          <mxGeometry width="50" height="50" relative="1" as="geometry">
            <mxPoint x="585.5" y="149.9999999999999" as="sourcePoint" />
            <mxPoint x="585.3299999999999" y="159.9999999999999" as="targetPoint" />
          </mxGeometry>
        </mxCell>
        <mxCell id="HdevCpLUgXE9_d9KvRqk-4" value="" style="endArrow=classic;html=1;rounded=0;fontSize=13;" parent="1" edge="1">
          <mxGeometry width="50" height="50" relative="1" as="geometry">
            <mxPoint x="585.5700000000002" y="174.9999999999999" as="sourcePoint" />
            <mxPoint x="585.4000000000001" y="164.9999999999999" as="targetPoint" />
            <Array as="points">
              <mxPoint x="585.5" y="180" />
            </Array>
          </mxGeometry>
        </mxCell>
        <mxCell id="PxTCDQfgkm8OB7wUEjS6-1" value="Lubuntu-tietoverkot" style="fontColor=#0066CC;verticalAlign=top;verticalLabelPosition=bottom;labelPosition=center;align=center;html=1;outlineConnect=0;fillColor=#CCCCCC;strokeColor=#6881B3;gradientColor=none;gradientDirection=north;strokeWidth=2;shape=mxgraph.networks.pc;fontSize=17;" parent="1" vertex="1">
          <mxGeometry x="117" y="580" width="140" height="90" as="geometry" />
        </mxCell>
        <mxCell id="PxTCDQfgkm8OB7wUEjS6-2" value="Lubuntu-tietoverkot2" style="fontColor=#0066CC;verticalAlign=top;verticalLabelPosition=bottom;labelPosition=center;align=center;html=1;outlineConnect=0;fillColor=#CCCCCC;strokeColor=#6881B3;gradientColor=none;gradientDirection=north;strokeWidth=2;shape=mxgraph.networks.pc;fontSize=17;" parent="1" vertex="1">
          <mxGeometry x="515" y="650" width="140" height="90" as="geometry" />
        </mxCell>
        <mxCell id="MtPjY1Oz2lhZTeZhmN8m-1" value="&lt;font style=&quot;font-size: 13px;&quot;&gt;Switch&lt;/font&gt;" style="html=1;whiteSpace=wrap;shape=isoCube2;backgroundOutline=1;isoAngle=15;fontSize=17;" parent="1" vertex="1">
          <mxGeometry x="220" y="352.5" width="150" height="90" as="geometry" />
        </mxCell>
        <mxCell id="MtPjY1Oz2lhZTeZhmN8m-2" value="&lt;font style=&quot;font-size: 13px;&quot;&gt;Switch2&lt;/font&gt;" style="html=1;whiteSpace=wrap;shape=isoCube2;backgroundOutline=1;isoAngle=15;fontSize=17;" parent="1" vertex="1">
          <mxGeometry x="510" y="280" width="150" height="90" as="geometry" />
        </mxCell>
        <mxCell id="MtPjY1Oz2lhZTeZhmN8m-3" value="&lt;font style=&quot;font-size: 13px;&quot;&gt;Switch3&lt;/font&gt;" style="html=1;whiteSpace=wrap;shape=isoCube2;backgroundOutline=1;isoAngle=15;fontSize=17;" parent="1" vertex="1">
          <mxGeometry x="510" y="460" width="150" height="90" as="geometry" />
        </mxCell>
        <mxCell id="k_7R_UYTRLQ0XQOwbL9l-1" value="port1" style="rounded=0;whiteSpace=wrap;html=1;labelBackgroundColor=none;fontSize=12;labelBorderColor=none;fillColor=#e1d5e7;strokeColor=#9673a6;" parent="1" vertex="1">
          <mxGeometry x="230" y="442.5" width="40" height="17.5" as="geometry" />
        </mxCell>
        <mxCell id="k_7R_UYTRLQ0XQOwbL9l-2" value="port1" style="rounded=0;whiteSpace=wrap;html=1;labelBackgroundColor=none;fontSize=12;labelBorderColor=none;fillColor=#e1d5e7;strokeColor=#9673a6;" parent="1" vertex="1">
          <mxGeometry x="600" y="440" width="40" height="17.5" as="geometry" />
        </mxCell>
        <mxCell id="k_7R_UYTRLQ0XQOwbL9l-3" value="port1" style="rounded=0;whiteSpace=wrap;html=1;labelBackgroundColor=none;fontSize=12;labelBorderColor=none;fillColor=#e1d5e7;strokeColor=#9673a6;" parent="1" vertex="1">
          <mxGeometry x="460" y="282.5" width="40" height="17.5" as="geometry" />
        </mxCell>
        <mxCell id="k_7R_UYTRLQ0XQOwbL9l-4" value="port2" style="rounded=0;whiteSpace=wrap;html=1;labelBackgroundColor=none;fontSize=12;labelBorderColor=none;fillColor=#e1d5e7;strokeColor=#9673a6;" parent="1" vertex="1">
          <mxGeometry x="600" y="370" width="40" height="17.5" as="geometry" />
        </mxCell>
        <mxCell id="k_7R_UYTRLQ0XQOwbL9l-5" value="port2" style="rounded=0;whiteSpace=wrap;html=1;labelBackgroundColor=none;fontSize=12;labelBorderColor=none;fillColor=#e1d5e7;strokeColor=#9673a6;" parent="1" vertex="1">
          <mxGeometry x="600" y="552.5" width="40" height="17.5" as="geometry" />
        </mxCell>
        <mxCell id="k_7R_UYTRLQ0XQOwbL9l-6" value="port2" style="rounded=0;whiteSpace=wrap;html=1;labelBackgroundColor=none;fontSize=12;labelBorderColor=none;fillColor=#e1d5e7;strokeColor=#9673a6;" parent="1" vertex="1">
          <mxGeometry x="330" y="342.5" width="40" height="17.5" as="geometry" />
        </mxCell>
        <mxCell id="k_7R_UYTRLQ0XQOwbL9l-7" value="port3" style="rounded=0;whiteSpace=wrap;html=1;labelBackgroundColor=none;fontSize=12;labelBorderColor=none;fillColor=#e1d5e7;strokeColor=#9673a6;" parent="1" vertex="1">
          <mxGeometry x="330" y="442.5" width="40" height="17.5" as="geometry" />
        </mxCell>
        <mxCell id="k_7R_UYTRLQ0XQOwbL9l-8" value="port3" style="rounded=0;whiteSpace=wrap;html=1;labelBackgroundColor=none;fontSize=12;labelBorderColor=none;fillColor=#e1d5e7;strokeColor=#9673a6;" parent="1" vertex="1">
          <mxGeometry x="460" y="510" width="40" height="17.5" as="geometry" />
        </mxCell>
        <mxCell id="k_7R_UYTRLQ0XQOwbL9l-9" value="port3" style="rounded=0;whiteSpace=wrap;html=1;labelBackgroundColor=none;fontSize=12;labelBorderColor=none;fillColor=#e1d5e7;strokeColor=#9673a6;" parent="1" vertex="1">
          <mxGeometry x="600" y="262.5" width="40" height="17.5" as="geometry" />
        </mxCell>
        <mxCell id="k_7R_UYTRLQ0XQOwbL9l-11" value="" style="endArrow=none;html=1;rounded=0;entryX=0;entryY=0.5;entryDx=0;entryDy=0;entryPerimeter=0;exitX=0;exitY=0;exitDx=150;exitDy=36.0118138620174;exitPerimeter=0;strokeWidth=3;" parent="1" source="MtPjY1Oz2lhZTeZhmN8m-1" target="MtPjY1Oz2lhZTeZhmN8m-2" edge="1">
          <mxGeometry width="50" height="50" relative="1" as="geometry">
            <mxPoint x="400" y="420" as="sourcePoint" />
            <mxPoint x="450" y="370" as="targetPoint" />
          </mxGeometry>
        </mxCell>
        <mxCell id="k_7R_UYTRLQ0XQOwbL9l-12" value="" style="endArrow=none;html=1;rounded=0;exitX=0.5;exitY=0;exitDx=0;exitDy=0;exitPerimeter=0;strokeWidth=3;" parent="1" source="MtPjY1Oz2lhZTeZhmN8m-3" edge="1">
          <mxGeometry width="50" height="50" relative="1" as="geometry">
            <mxPoint x="450" y="460" as="sourcePoint" />
            <mxPoint x="585" y="420" as="targetPoint" />
          </mxGeometry>
        </mxCell>
        <mxCell id="k_7R_UYTRLQ0XQOwbL9l-13" value="" style="endArrow=none;html=1;rounded=0;entryX=0;entryY=0.5;entryDx=0;entryDy=0;entryPerimeter=0;exitX=0.82;exitY=0.794;exitDx=0;exitDy=0;exitPerimeter=0;strokeWidth=3;" parent="1" source="MtPjY1Oz2lhZTeZhmN8m-1" target="MtPjY1Oz2lhZTeZhmN8m-3" edge="1">
          <mxGeometry width="50" height="50" relative="1" as="geometry">
            <mxPoint x="330" y="521.5" as="sourcePoint" />
            <mxPoint x="470" y="457.5" as="targetPoint" />
          </mxGeometry>
        </mxCell>
        <mxCell id="k_7R_UYTRLQ0XQOwbL9l-14" value="" style="endArrow=none;html=1;rounded=0;entryX=0.5;entryY=1;entryDx=0;entryDy=0;entryPerimeter=0;exitX=0.5;exitY=0;exitDx=0;exitDy=0;exitPerimeter=0;strokeWidth=3;" parent="1" source="MtPjY1Oz2lhZTeZhmN8m-2" target="Vp-uZyiqW1JjBArKR8Tw-1" edge="1">
          <mxGeometry width="50" height="50" relative="1" as="geometry">
            <mxPoint x="584.5" y="317.5" as="sourcePoint" />
            <mxPoint x="584.5" y="227.5" as="targetPoint" />
          </mxGeometry>
        </mxCell>
        <mxCell id="k_7R_UYTRLQ0XQOwbL9l-15" value="" style="endArrow=none;html=1;rounded=0;entryX=0.5;entryY=1;entryDx=0;entryDy=0;entryPerimeter=0;strokeWidth=3;" parent="1" source="PxTCDQfgkm8OB7wUEjS6-2" target="MtPjY1Oz2lhZTeZhmN8m-3" edge="1">
          <mxGeometry width="50" height="50" relative="1" as="geometry">
            <mxPoint x="584.5" y="630" as="sourcePoint" />
            <mxPoint x="584.5" y="570" as="targetPoint" />
          </mxGeometry>
        </mxCell>
        <mxCell id="k_7R_UYTRLQ0XQOwbL9l-16" value="" style="endArrow=none;html=1;rounded=0;entryX=0.5;entryY=1;entryDx=0;entryDy=0;entryPerimeter=0;strokeWidth=3;" parent="1" source="PxTCDQfgkm8OB7wUEjS6-1" target="MtPjY1Oz2lhZTeZhmN8m-1" edge="1">
          <mxGeometry width="50" height="50" relative="1" as="geometry">
            <mxPoint x="310" y="527.5" as="sourcePoint" />
            <mxPoint x="310" y="467.5" as="targetPoint" />
          </mxGeometry>
        </mxCell>
        <mxCell id="k_7R_UYTRLQ0XQOwbL9l-17" value="&lt;b&gt;&lt;font style=&quot;font-size: 13px;&quot;&gt;DP&lt;/font&gt;&lt;/b&gt;" style="text;html=1;strokeColor=none;fillColor=none;align=center;verticalAlign=middle;whiteSpace=wrap;rounded=0;" parent="1" vertex="1">
          <mxGeometry x="450" y="300" width="60" height="30" as="geometry" />
        </mxCell>
        <mxCell id="k_7R_UYTRLQ0XQOwbL9l-19" value="&lt;b style=&quot;border-color: var(--border-color); color: rgb(0, 0, 0); font-family: Helvetica; font-size: 12px; font-style: normal; font-variant-ligatures: normal; font-variant-caps: normal; letter-spacing: normal; orphans: 2; text-align: center; text-indent: 0px; text-transform: none; widows: 2; word-spacing: 0px; -webkit-text-stroke-width: 0px; background-color: rgb(251, 251, 251); text-decoration-style: initial; text-decoration-color: initial;&quot;&gt;&lt;font style=&quot;border-color: var(--border-color); font-size: 13px;&quot;&gt;DP&lt;/font&gt;&lt;/b&gt;" style="text;whiteSpace=wrap;html=1;fontSize=13;" parent="1" vertex="1">
          <mxGeometry x="643" y="258.25" width="20" height="30" as="geometry" />
        </mxCell>
        <mxCell id="k_7R_UYTRLQ0XQOwbL9l-20" value="&lt;b style=&quot;border-color: var(--border-color); color: rgb(0, 0, 0); font-family: Helvetica; font-size: 12px; font-style: normal; font-variant-ligatures: normal; font-variant-caps: normal; letter-spacing: normal; orphans: 2; text-align: center; text-indent: 0px; text-transform: none; widows: 2; word-spacing: 0px; -webkit-text-stroke-width: 0px; background-color: rgb(251, 251, 251); text-decoration-style: initial; text-decoration-color: initial;&quot;&gt;&lt;font style=&quot;border-color: var(--border-color); font-size: 13px;&quot;&gt;DP&lt;/font&gt;&lt;/b&gt;" style="text;whiteSpace=wrap;html=1;fontSize=13;" parent="1" vertex="1">
          <mxGeometry x="240" y="457.5" width="20" height="30" as="geometry" />
        </mxCell>
        <mxCell id="k_7R_UYTRLQ0XQOwbL9l-21" value="&lt;b style=&quot;border-color: var(--border-color); color: rgb(0, 0, 0); font-family: Helvetica; font-size: 12px; font-style: normal; font-variant-ligatures: normal; font-variant-caps: normal; letter-spacing: normal; orphans: 2; text-align: center; text-indent: 0px; text-transform: none; widows: 2; word-spacing: 0px; -webkit-text-stroke-width: 0px; background-color: rgb(251, 251, 251); text-decoration-style: initial; text-decoration-color: initial;&quot;&gt;&lt;font style=&quot;border-color: var(--border-color); font-size: 13px;&quot;&gt;DP&lt;/font&gt;&lt;/b&gt;" style="text;whiteSpace=wrap;html=1;fontSize=13;" parent="1" vertex="1">
          <mxGeometry x="340" y="460" width="20" height="30" as="geometry" />
        </mxCell>
        <mxCell id="k_7R_UYTRLQ0XQOwbL9l-22" value="&lt;b style=&quot;border-color: var(--border-color); color: rgb(0, 0, 0); font-family: Helvetica; font-size: 12px; font-style: normal; font-variant-ligatures: normal; font-variant-caps: normal; letter-spacing: normal; orphans: 2; text-align: center; text-indent: 0px; text-transform: none; widows: 2; word-spacing: 0px; -webkit-text-stroke-width: 0px; background-color: rgb(251, 251, 251); text-decoration-style: initial; text-decoration-color: initial;&quot;&gt;&lt;font style=&quot;border-color: var(--border-color); font-size: 13px;&quot;&gt;DP&lt;/font&gt;&lt;/b&gt;" style="text;whiteSpace=wrap;html=1;fontSize=13;" parent="1" vertex="1">
          <mxGeometry x="643" y="436.25" width="20" height="30" as="geometry" />
        </mxCell>
        <mxCell id="k_7R_UYTRLQ0XQOwbL9l-23" value="&lt;b style=&quot;border-color: var(--border-color); color: rgb(0, 0, 0); font-family: Helvetica; font-size: 12px; font-style: normal; font-variant-ligatures: normal; font-variant-caps: normal; letter-spacing: normal; orphans: 2; text-align: center; text-indent: 0px; text-transform: none; widows: 2; word-spacing: 0px; -webkit-text-stroke-width: 0px; background-color: rgb(251, 251, 251); text-decoration-style: initial; text-decoration-color: initial;&quot;&gt;&lt;font style=&quot;border-color: var(--border-color); font-size: 13px;&quot;&gt;DP&lt;/font&gt;&lt;/b&gt;" style="text;whiteSpace=wrap;html=1;fontSize=13;" parent="1" vertex="1">
          <mxGeometry x="643" y="550" width="20" height="30" as="geometry" />
        </mxCell>
        <mxCell id="k_7R_UYTRLQ0XQOwbL9l-24" value="&lt;b style=&quot;border-color: var(--border-color); color: rgb(0, 0, 0); font-family: Helvetica; font-size: 12px; font-style: normal; font-variant-ligatures: normal; font-variant-caps: normal; letter-spacing: normal; orphans: 2; text-align: center; text-indent: 0px; text-transform: none; widows: 2; word-spacing: 0px; -webkit-text-stroke-width: 0px; background-color: rgb(251, 251, 251); text-decoration-style: initial; text-decoration-color: initial;&quot;&gt;&lt;font style=&quot;border-color: var(--border-color); font-size: 13px;&quot;&gt;RP&lt;/font&gt;&lt;/b&gt;" style="text;whiteSpace=wrap;html=1;fontSize=13;" parent="1" vertex="1">
          <mxGeometry x="370" y="336.25" width="20" height="30" as="geometry" />
        </mxCell>
        <mxCell id="k_7R_UYTRLQ0XQOwbL9l-25" value="&lt;b style=&quot;border-color: var(--border-color); color: rgb(0, 0, 0); font-family: Helvetica; font-size: 12px; font-style: normal; font-variant-ligatures: normal; font-variant-caps: normal; letter-spacing: normal; orphans: 2; text-align: center; text-indent: 0px; text-transform: none; widows: 2; word-spacing: 0px; -webkit-text-stroke-width: 0px; background-color: rgb(251, 251, 251); text-decoration-style: initial; text-decoration-color: initial;&quot;&gt;&lt;font style=&quot;border-color: var(--border-color); font-size: 13px;&quot;&gt;RP&lt;/font&gt;&lt;/b&gt;" style="text;whiteSpace=wrap;html=1;fontSize=13;" parent="1" vertex="1">
          <mxGeometry x="470" y="527.5" width="20" height="30" as="geometry" />
        </mxCell>
        <mxCell id="2oU11HphENMIPvccv5Yn-2" value="&lt;font color=&quot;#ff3333&quot;&gt;&lt;b&gt;DISABLED&lt;/b&gt;&lt;/font&gt;" style="text;html=1;align=center;verticalAlign=middle;resizable=0;points=[];autosize=1;strokeColor=none;fillColor=none;fontSize=13;" parent="1" vertex="1">
          <mxGeometry x="630" y="363.75" width="90" height="30" as="geometry" />
        </mxCell>
        <mxCell id="2oU11HphENMIPvccv5Yn-3" value="&lt;b&gt;X&lt;/b&gt;" style="text;html=1;align=center;verticalAlign=middle;resizable=0;points=[];autosize=1;strokeColor=none;fillColor=none;fontSize=13;fontColor=#FF3333;" parent="1" vertex="1">
          <mxGeometry x="570" y="402.75" width="30" height="30" as="geometry" />
        </mxCell>
      </root>
    </mxGraphModel>
  </diagram>
</mxfile>
